<?xml version="1.0" encoding="UTF-8"?>
<svg id="Calque_1" data-name="Calque 1" xmlns="http://www.w3.org/2000/svg" viewBox="0 0 2029.54 1522.16">
  <defs>
    <style>
      .cls-1 {
        fill: #5c6df9;
      }
    </style>
  </defs>
  <g>
    <path class="cls-1" d="m214.22,1299.45c0,2.82-1.18,4.23-3.55,4.23-1.7,0-4.28-.17-7.73-.51-3.45-.34-6.03-.51-7.73-.51s-4.3.17-7.8.51c-3.5.34-6.1.51-7.8.51-2.37,0-3.55-1.86-3.55-5.58,0-14.31.38-35.78,1.14-64.41.76-28.62,1.13-50.09,1.13-64.41,0-2.14-.38-3.21-1.13-3.21-.85,0-1.51.62-1.99,1.86-4.82,12.29-16.22,45.08-34.19,98.38-2.93,10.26-7.14,23.05-12.63,38.37-.66,1.46-4.07,2.2-10.21,2.2-8.89,0-13.81-.96-14.75-2.87-3.22-9.13-7.8-21.92-13.76-38.37-7.85-22.31-19.91-55.56-36.18-99.74-.28-.79-.9-1.58-1.84-2.37-.76.68-1.14,1.92-1.14,3.72,0,14.54.21,36.34.64,65.42.43,29.08.64,50.88.64,65.42,0,3.72-1.18,5.58-3.55,5.58-1.61,0-4.07-.17-7.38-.51-3.31-.34-5.77-.51-7.38-.51-1.7,0-4.23.17-7.59.51-3.36.34-5.89.51-7.59.51-2.37,0-3.55-1.07-3.55-3.21,0-12.51.5-31.24,1.49-56.21.99-24.96,1.49-43.7,1.49-56.21s-.5-32.43-1.49-58.4c-.99-25.97-1.49-45.44-1.49-58.41,0-2.14,1.09-3.38,3.26-3.72,12.86-2.03,22.56-3.04,29.08-3.04.94,0,2.27,2.31,3.97,6.93,22.89,59.96,42.56,113.49,59.02,160.59,3.88,11.05,6.19,16.57,6.95,16.57.94,0,2.98-4.51,6.1-13.52,12.86-36.51,30.69-90.72,53.48-162.62,1.42-4.39,2.98-6.59,4.68-6.59,3.21,0,8.06.23,14.54.68,6.48.45,11.33.68,14.54.68,2.36,0,3.55,1.35,3.55,4.06,0,12.96-.35,32.43-1.06,58.41-.71,25.98-1.06,45.45-1.06,58.4s.4,30.99,1.21,55.78c.8,24.79,1.21,43.33,1.21,55.62Z"/>
    <path class="cls-1" d="m431.7,1185.01c0,33.47-8.99,62.27-26.95,86.38-18.73,25.02-41.99,37.53-69.8,37.53s-51.17-12.45-69.8-37.36c-17.97-24-26.95-52.85-26.95-86.55s9.08-62.15,27.24-86.38c18.73-25.13,41.9-37.7,69.51-37.7s50.93,12.57,69.66,37.7c18.06,24.12,27.1,52.91,27.1,86.38Zm-34.19-.51c0-22.09-5.77-41.3-17.31-57.64-12.11-17.35-27.29-26.03-45.54-26.03s-33.1,8.79-45.11,26.37c-11.35,16.46-17.02,35.73-17.02,57.81s5.67,41.19,17.02,57.64c12.01,17.58,27.05,26.37,45.11,26.37s33.57-8.79,45.68-26.37c11.44-16.45,17.17-35.84,17.17-58.15Z"/>
    <path class="cls-1" d="m633.43,1070.23c0,12.96-.38,32.51-1.13,58.66-.76,26.15-1.14,45.75-1.14,58.83,0,12.28.09,30.68.28,55.19.19,24.51.28,42.91.28,55.19,0,3.72-1.18,5.58-3.55,5.58-1.42,0-3.55-.17-6.38-.51-2.84-.34-4.97-.51-6.38-.51-1.51,0-3.83.17-6.95.51-3.12.34-5.44.51-6.95.51-1.7,0-3.74-1.86-6.1-5.58-20.43-32.79-51.4-81.7-92.92-146.73-6.43-9.92-10.17-15.44-11.21-16.57-.95,0-1.42,2.31-1.42,6.93,0,17.36.23,43.42.71,78.18.47,34.77.71,60.83.71,78.18,0,3.72-.95,5.58-2.84,5.58-1.61,0-4.07-.17-7.38-.51-3.31-.34-5.77-.51-7.38-.51-1.7,0-4.23.17-7.59.51-3.36.34-5.89.51-7.59.51-2.37,0-3.55-1.12-3.55-3.38,0-12.4.5-31.08,1.49-56.04.99-24.96,1.49-43.7,1.49-56.21,0-13.63-.43-38.2-1.28-73.7-.19-9.24-.66-23.1-1.42-41.58l-.14-2.2c-.1-1.69,1.04-2.59,3.4-2.71,6.15-.11,10.97-.34,14.47-.68,1.32-.11,3.83-.56,7.52-1.35,3.12-.68,5.58-1.01,7.38-1.01.85,0,2.32,1.64,4.4,4.9,21.75,35.61,55.04,88.58,99.87,158.9,1.99,2.93,3.83,5.47,5.53,7.61.66-4.73.99-15.55.99-32.46,0-14.65-.45-36.62-1.35-65.93-.9-29.3-1.35-51.22-1.35-65.76,0-3.72.94-5.58,2.84-5.58,1.7,0,4.28.17,7.73.51,3.45.34,6.03.51,7.73.51,1.8,0,4.49-.17,8.09-.51,3.59-.34,6.29-.51,8.09-.51,1.99,0,2.98,1.24,2.98,3.72Z"/>
    <path class="cls-1" d="m797.86,1269.7c0,1.8-.38,4.39-1.13,7.78-.85,4.28-1.37,6.88-1.56,7.78-.28,4.06-.95,9.97-1.99,17.75-.47,2.03-1.7,3.04-3.69,3.04-.95,0-2.74-.23-5.39-.68-11.63-2.03-29.65-3.04-54.05-3.04-6.9,0-17.31.23-31.21.68-13.9.45-24.31.68-31.21.68-3.12,0-4.68-1.63-4.68-4.9,0-12.62.59-31.58,1.77-56.88,1.18-25.3,1.77-44.26,1.77-56.88s-.57-36.79-1.7-71.84c-.19-9.01-.71-22.48-1.56-40.4l-.14-2.37c-.1-2.59,1.13-3.89,3.69-3.89,6.62,0,16.55.23,29.79.68,13.24.45,23.17.68,29.79.68s15.82-.22,28.44-.68c12.63-.45,22.11-.68,28.44-.68,4.44,0,6.86,1.64,7.24,4.9,1.99,14.88,2.98,24.12,2.98,27.72,0,2.59-1.04,3.89-3.12,3.89-8.04,0-20.22-.53-36.53-1.61-16.31-1.07-28.59-1.61-36.81-1.61-7.76,0-12.65,1.24-14.68,3.72-2.04,2.48-3.05,8.62-3.05,18.43v25.19c0,6.88.14,10.88.43,12,.85,3.49,3.31,5.24,7.38,5.24,1.13,0,2.74-.06,4.82-.17h4.82c18.54,0,35.18-.39,49.94-1.18,5.77-.22,12.58-.79,20.43-1.69,1.99-.22,2.98.79,2.98,3.04,0,3.61-.35,9.13-1.06,16.57-.71,7.44-1.06,13.02-1.06,16.74,0,2.03-1.42,3.04-4.26,3.04-1.13,0-5.34-.39-12.63-1.18-5.3-.68-17.21-1.01-35.75-1.01-15.61,0-25.49.23-29.65.68-3.78.34-5.96,2.7-6.53,7.1.09-.79.14,3.55.14,13.02v25.02c0,11.72,1.51,19.05,4.54,21.98,2.36,2.37,8.27,3.55,17.73,3.55l15.61-.17c6.62,0,25.2-1.35,55.75-4.06l2.13-.17c1.89-.22,2.84,1.18,2.84,4.23Z"/>
    <path class="cls-1" d="m971.22,1130.24c0,6.42-8.42,23.44-25.25,51.05-11.16,17.24-22.27,34.49-33.34,51.73-2.74,4.28-4.11,8.68-4.11,13.19,0,6.08.26,15.19.78,27.3.52,12.12.78,21.16.78,27.13,0,2.03-1.18,3.04-3.55,3.04h-33.76c-1.89,0-2.84-1.63-2.84-4.9,0-5.75.33-14.48.99-26.2.66-11.72.99-20.51.99-26.37,0-5.07-1.18-9.58-3.55-13.52-6.81-10.48-16.98-26.26-30.5-47.33-11.54-18.82-19.86-33.13-24.97-42.94-1.7-3.38-2.55-6.65-2.55-9.8-.19-14.2-.28-34.71-.28-61.53,0-3.04,1.13-4.56,3.4-4.56,1.61,0,3.99.17,7.16.51,3.17.34,5.56.51,7.16.51,1.89,0,4.73-.17,8.51-.51,3.78-.34,6.67-.51,8.65-.51,1.7,0,2.55.9,2.55,2.7,0,6.31-.28,15.78-.85,28.4-.57,12.62-.85,22.09-.85,28.4,0,6.76,14.99,30.54,44.97,71.34,7.09-9.58,15.23-21.47,24.4-35.67,12.77-19.61,19.15-31.38,19.15-35.33,0-6.08-.38-15.3-1.13-27.64-.76-12.34-1.13-21.55-1.13-27.64,0-3.04,1.09-4.56,3.26-4.56,1.7,0,4.3.17,7.8.51,3.5.34,6.1.51,7.8.51,1.8,0,4.52-.17,8.16-.51,3.64-.34,6.36-.51,8.16-.51,2.27,0,3.4,1.86,3.4,5.58,0,6.42.09,16.12.28,29.08.19,12.96.28,22.65.28,29.08Z"/>
    <path class="cls-1" d="m1216.36,1302.33c0,.9-.76,1.35-2.27,1.35-1.8,0-4.54-.17-8.23-.51-3.69-.34-6.43-.51-8.23-.51-1.99,0-4.94.17-8.87.51-3.93.34-6.88.51-8.87.51-2.18,0-3.83-1.41-4.97-4.23-3.03-7.66-11.63-31.38-25.82-71.17-1.42-4.06-4.87-6.53-10.36-7.44-1.23-.11-5.53-.17-12.91-.17-13.05,0-20.81.23-23.27.68-1.99.34-2.98,3.21-2.98,8.62,0,7.89.31,19.69.92,35.42.61,15.72.92,27.47.92,35.25,0,2.37-.95,3.55-2.84,3.55s-4.75-.25-8.58-.76c-3.83-.51-6.74-.76-8.72-.76-1.61,0-4.07.17-7.38.51-3.31.34-5.77.51-7.38.51-2.37,0-3.55-1.29-3.55-3.89,0-12.51.5-31.3,1.49-56.38.99-25.07,1.49-43.87,1.49-56.38,0-35.61-1.09-73.59-3.26-113.93l-.14-2.71c-.09-2.25,1.89-3.38,5.96-3.38,8.13,0,20.31-.25,36.53-.76,16.22-.51,28.35-.76,36.39-.76,21,0,37.83,5.97,50.5,17.92,14,13.19,21,31.89,21,56.12,0,16.68-1.89,29.81-5.67,39.39-3.97,10.14-11.35,19.78-22.13,28.91-1.8,1.47-2.7,2.87-2.7,4.23,0,1.58,5.65,16.57,16.95,44.97,11.3,28.4,16.95,43.5,16.95,45.3Zm-38.87-153.32c0-20.4-4.92-34.03-14.75-40.91-7.28-5.07-20.38-7.61-39.3-7.61-15.32,0-23.12,1.47-23.41,4.4-.66,6.08-.99,22.37-.99,48.85v32.29c.28.23.9.45,1.84.68,1.7.23,4.49.51,8.37.85,8.98.57,18.68.84,29.08.84,26.1,0,39.16-13.13,39.16-39.39Z"/>
    <path class="cls-1" d="m1423.06,1185.01c0,33.47-8.99,62.27-26.96,86.38-18.73,25.02-41.99,37.53-69.8,37.53s-51.17-12.45-69.8-37.36c-17.97-24-26.95-52.85-26.95-86.55s9.08-62.15,27.24-86.38c18.73-25.13,41.9-37.7,69.51-37.7s50.93,12.57,69.66,37.7c18.06,24.12,27.1,52.91,27.1,86.38Zm-34.19-.51c0-22.09-5.77-41.3-17.31-57.64-12.11-17.35-27.29-26.03-45.54-26.03s-33.1,8.79-45.11,26.37c-11.35,16.46-17.02,35.73-17.02,57.81s5.67,41.19,17.02,57.64c12.01,17.58,27.05,26.37,45.11,26.37s33.57-8.79,45.68-26.37c11.44-16.45,17.17-35.84,17.17-58.15Z"/>
    <path class="cls-1" d="m1608.91,1070.23c0,13.07-.45,32.65-1.35,58.74-.9,26.09-1.35,45.67-1.35,58.74,0,4.28.05,10.68.14,19.19.09,8.51.14,14.85.14,19.02,0,23.55-1.84,39.89-5.53,49.02-5.67,13.97-16.69,23.44-33.05,28.4-10.03,3.04-24.17,4.56-42.42,4.56-33.1,0-54.81-6.54-65.12-19.61-7.94-10.14-11.92-30.43-11.92-60.86,0-3.72.05-10,.14-18.85.09-8.85.14-15.81.14-20.88,0-13.3-.47-37.81-1.42-73.53,0-9.24-.43-23.04-1.28-41.42-.1-1.35-.14-2.25-.14-2.7,0-2.37,1.23-3.55,3.69-3.55,3.88,0,9.13.06,15.75.17,7.66.11,12.86.17,15.6.17,2.17,0,3.26,1.01,3.26,3.04,0,17.13-.31,42.88-.92,77.25-.62,34.37-.92,60.12-.92,77.25,0,19.38,3.64,32.51,10.92,39.39,6.24,6.09,17.73,9.13,34.47,9.13,15.23,0,26.05-2.48,32.49-7.44,8.13-6.2,12.2-17.8,12.2-34.82s-.24-44.54-.71-80.21c-.47-35.67-.71-62.4-.71-80.21,0-1.8,1.37-2.93,4.11-3.38,1.99-.34,4.82-.34,8.51,0,4.35.45,6.43.68,6.24.68,1.7,0,4.28-.17,7.73-.51,3.45-.34,6.03-.51,7.73-.51,2.36,0,3.55,1.24,3.55,3.72Z"/>
    <path class="cls-1" d="m1816.6,1070.23c0,12.96-.38,32.51-1.14,58.66-.76,26.15-1.13,45.75-1.13,58.83,0,12.28.09,30.68.28,55.19.19,24.51.28,42.91.28,55.19,0,3.72-1.18,5.58-3.55,5.58-1.42,0-3.55-.17-6.38-.51-2.84-.34-4.96-.51-6.38-.51-1.51,0-3.83.17-6.95.51-3.12.34-5.44.51-6.95.51-1.7,0-3.74-1.86-6.1-5.58-20.43-32.79-51.4-81.7-92.92-146.73-6.43-9.92-10.17-15.44-11.21-16.57-.95,0-1.42,2.31-1.42,6.93,0,17.36.24,43.42.71,78.18.47,34.77.71,60.83.71,78.18,0,3.72-.95,5.58-2.84,5.58-1.61,0-4.07-.17-7.38-.51-3.31-.34-5.77-.51-7.38-.51-1.7,0-4.23.17-7.59.51-3.36.34-5.89.51-7.59.51-2.37,0-3.55-1.12-3.55-3.38,0-12.4.5-31.08,1.49-56.04.99-24.96,1.49-43.7,1.49-56.21,0-13.63-.43-38.2-1.28-73.7-.19-9.24-.66-23.1-1.42-41.58l-.14-2.2c-.09-1.69,1.04-2.59,3.41-2.71,6.15-.11,10.97-.34,14.47-.68,1.32-.11,3.83-.56,7.52-1.35,3.12-.68,5.58-1.01,7.38-1.01.85,0,2.32,1.64,4.4,4.9,21.75,35.61,55.04,88.58,99.87,158.9,1.99,2.93,3.83,5.47,5.53,7.61.66-4.73.99-15.55.99-32.46,0-14.65-.45-36.62-1.35-65.93-.9-29.3-1.35-51.22-1.35-65.76,0-3.72.94-5.58,2.84-5.58,1.7,0,4.28.17,7.73.51,3.45.34,6.03.51,7.73.51,1.8,0,4.49-.17,8.09-.51,3.59-.34,6.29-.51,8.09-.51,1.99,0,2.98,1.24,2.98,3.72Z"/>
    <path class="cls-1" d="m2021.31,1183.83c0,31.67-7.57,59.05-22.7,82.16-16.46,25.13-37.55,37.7-63.27,37.7-4.92,0-12.32-.22-22.2-.68-9.88-.45-17.29-.68-22.2-.68-4.45,0-11.14.23-20.07.68-8.94.45-15.63.68-20.07.68-2.37,0-3.55-1.41-3.55-4.23,0-12.28.4-30.82,1.21-55.62.8-24.79,1.21-43.39,1.21-55.78,0-13.07-.38-32.74-1.13-59-.76-26.26-1.13-45.92-1.13-59,0-2.37,1.23-3.55,3.69-3.55,3.5,0,8.72.06,15.68.17,6.95.11,12.18.17,15.68.17,3.21,0,8.13-.06,14.75-.17,6.62-.11,11.63-.17,15.04-.17,32.82,0,57.26,7.38,73.34,22.15,11.54,10.59,20.48,24.85,26.81,42.77,5.96,16.68,8.94,34.15,8.94,52.4Zm-34.76,0c0-24.34-5.82-44.18-17.45-59.5-12.11-15.89-28.28-23.83-48.52-23.83-16.74,0-23.5-.11-20.29-.34-11.07.68-16.6,3.1-16.6,7.27,0,8.68-.17,21.67-.5,38.96-.33,17.3-.5,30.29-.5,38.96s.16,21.41.5,38.54c.33,17.13.5,29.98.5,38.54,0,4.28,5.67,6.76,17.02,7.44-1.51-.11,5.39-.17,20.71-.17,10.88,0,19.53-1.35,25.96-4.06,7.94-3.38,15.08-9.63,21.42-18.76,11.82-17.13,17.73-38.15,17.73-63.05Z"/>
  </g>
  <g>
    <path class="cls-1" d="m428.7,1493.9c0,.53-.39.79-1.17.79-.62,0-1.52-.07-2.71-.2-1.19-.13-2.09-.2-2.71-.2s-1.55.07-2.79.2c-1.24.13-2.17.2-2.79.2-.91,0-2.08-3.33-3.5-10-1.42-6.67-2.86-10.05-4.33-10.14-1.21-.09-4.35-.13-9.44-.13h-7.72c-5.38,0-8.44.04-9.19.13-1.17.13-2.42,3.52-3.74,10.17s-2.34,9.97-3.06,9.97h-11c-.65,0-.98-.31-.98-.92,0-.44.23-1.43.68-2.97l11.98-44.24c1.01-3.57,4.07-13.84,9.19-30.84.91-2.82,2.15-7.07,3.72-12.74.39-1.67.81-2.51,1.27-2.51.62,0,1.53.11,2.74.33,1.21.22,2.12.33,2.74.33.59,0,1.47-.12,2.66-.36,1.19-.24,2.06-.36,2.62-.36.29,0,.7.82,1.22,2.44.78,2.47,4.64,15.74,11.59,39.82,9.81,33.85,14.72,50.94,14.72,51.24Zm-22.78-36.45c0-1.28-1.47-7-4.4-17.17-2.84-9.86-4.84-16.33-6.01-19.41-6.75,23.24-10.12,35.42-10.12,36.52,0,1.5,1.24,2.38,3.72,2.64.13.04,1.73.07,4.79.07h5.04c4.66,0,6.99-.88,6.99-2.64Z"/>
    <path class="cls-1" d="m513.13,1435.06c0,1.85-3.19,10.92-9.58,27.21-4.04,10.17-8.08,20.34-12.12,30.51-.49,1.28-1.03,1.92-1.61,1.92h-9.83c-.46,0-.91-.64-1.37-1.92-.1-.26-3.98-10.12-11.64-29.58-6.55-16.68-9.83-25.8-9.83-27.34,0-3.48.09-8.71.27-15.68.18-6.98.27-12.21.27-15.68,0-1.63.39-2.44,1.17-2.44.62,0,1.52.07,2.71.2,1.19.13,2.09.2,2.71.2.59,0,1.48-.07,2.69-.2,1.21-.13,2.1-.2,2.69-.2.75,0,1.12.42,1.12,1.25,0,3.57-.17,8.94-.51,16.11-.34,7.18-.51,12.57-.51,16.18,0,2.99,5.05,16.33,15.16,40.02,2.67-6.16,5.57-13.23,8.7-21.2,4.53-11.53,6.8-18.31,6.8-20.34,0-3.43-.08-8.56-.24-15.39-.16-6.82-.24-11.93-.24-15.32,0-.88.36-1.32,1.08-1.32.62,0,1.53.07,2.74.2,1.21.13,2.1.2,2.69.2s1.47-.07,2.66-.2c1.19-.13,2.08-.2,2.66-.2.72,0,1.12.42,1.22,1.25-.03-.31-.05.53-.05,2.51,0,3.26.03,8.13.1,14.63.06,6.49.1,11.37.1,14.63Z"/>
    <path class="cls-1" d="m585.83,1448.33c0,13.07-3.1,24.32-9.29,33.74-6.45,9.77-14.47,14.66-24.05,14.66s-17.63-4.86-24.05-14.59c-6.19-9.38-9.29-20.65-9.29-33.81s3.13-24.28,9.39-33.74c6.45-9.82,14.44-14.73,23.96-14.73s17.55,4.91,24,14.73c6.22,9.42,9.34,20.67,9.34,33.74Zm-11.78-.2c0-8.63-1.99-16.13-5.96-22.52-4.17-6.78-9.4-10.17-15.69-10.17s-11.41,3.43-15.55,10.3c-3.91,6.43-5.87,13.96-5.87,22.58s1.96,16.09,5.87,22.52c4.14,6.87,9.32,10.3,15.55,10.3s11.57-3.43,15.74-10.3c3.94-6.43,5.92-14,5.92-22.72Z"/>
    <path class="cls-1" d="m639.31,1414.53c0,1.15-.29,1.72-.88,1.72-.91,0-6.68-.26-17.31-.79-.29,13.43-.44,24.19-.44,32.29,0,5.06.14,12.66.42,22.78s.42,17.72.42,22.78c0,.92-.47,1.39-1.42,1.39-.59,0-1.48-.07-2.69-.2-1.21-.13-2.12-.2-2.74-.2-.59,0-1.48.07-2.69.2-1.21.13-2.1.2-2.69.2-.82,0-1.22-.55-1.22-1.65,0-5.02.15-12.56.46-22.62.31-10.06.46-17.62.46-22.68,0-7.83-.18-18.6-.54-32.29-8.41.7-14.57,1.06-18.48,1.06-.39,0-.59-.22-.59-.66,0-.79.15-1.94.44-3.43.36-1.94.57-3.08.64-3.43.06-1.54.29-3.68.68-6.41.16-.57.44-.86.83-.86l.59.07c11.54.92,19.15,1.39,22.83,1.39,3.26,0,8.59-.33,15.99-.99,5.05-.44,7.15-.66,6.31-.66.85,0,1.32.4,1.42,1.19-.07-.48-.1,1.65-.1,6.41,0,.57.05,1.46.15,2.67s.15,2.12.15,2.74Z"/>
    <path class="cls-1" d="m698.08,1494.16c0,.35-.26.53-.78.53-.62,0-1.56-.07-2.84-.2s-2.22-.2-2.84-.2c-.68,0-1.7.07-3.06.2-1.35.13-2.37.2-3.06.2-.75,0-1.32-.55-1.71-1.65-1.04-2.99-4.01-12.26-8.9-27.8-.49-1.58-1.68-2.55-3.57-2.91-.42-.04-1.91-.07-4.45-.07-4.5,0-7.17.09-8.02.26-.68.13-1.03,1.25-1.03,3.37,0,3.08.1,7.69.32,13.83.21,6.14.32,10.73.32,13.77,0,.92-.33,1.39-.98,1.39s-1.64-.1-2.96-.3c-1.32-.2-2.32-.3-3.01-.3-.55,0-1.4.07-2.54.2-1.14.13-1.99.2-2.54.2-.81,0-1.22-.51-1.22-1.52,0-4.89.17-12.23.51-22.02.34-9.79.51-17.14.51-22.02,0-13.91-.38-28.75-1.12-44.51l-.05-1.06c-.03-.88.65-1.32,2.05-1.32,2.8,0,7-.1,12.59-.3,5.59-.2,9.77-.3,12.54-.3,7.24,0,13.04,2.33,17.4,7,4.82,5.15,7.24,12.46,7.24,21.92,0,6.52-.65,11.64-1.96,15.39-1.37,3.96-3.91,7.73-7.63,11.29-.62.57-.93,1.12-.93,1.65,0,.62,1.95,6.47,5.84,17.56,3.89,11.09,5.84,16.99,5.84,17.7Zm-13.4-59.89c0-7.97-1.69-13.29-5.08-15.98-2.51-1.98-7.02-2.97-13.54-2.97-5.28,0-7.97.57-8.07,1.72-.23,2.38-.34,8.74-.34,19.08v12.61c.1.09.31.18.64.26.59.09,1.55.2,2.88.33,3.1.22,6.44.33,10.02.33,9,0,13.49-5.13,13.49-15.39Z"/>
    <path class="cls-1" d="m751.02,1481.42c0,.7-.13,1.72-.39,3.04-.29,1.67-.47,2.69-.54,3.04-.1,1.58-.33,3.9-.68,6.93-.16.79-.59,1.19-1.27,1.19-.33,0-.95-.09-1.86-.26-4.01-.79-10.22-1.19-18.63-1.19-2.38,0-5.96.09-10.76.26-4.79.18-8.38.26-10.76.26-1.08,0-1.61-.64-1.61-1.92,0-4.93.2-12.34.61-22.22.41-9.88.61-17.29.61-22.22s-.2-14.37-.59-28.06c-.07-3.52-.24-8.78-.54-15.78l-.05-.92c-.03-1.01.39-1.52,1.27-1.52,2.28,0,5.7.09,10.27.26,4.56.18,7.98.26,10.27.26s5.45-.09,9.8-.26c4.35-.17,7.62-.26,9.8-.26,1.53,0,2.36.64,2.49,1.92.68,5.81,1.03,9.42,1.03,10.83,0,1.01-.36,1.52-1.08,1.52-2.77,0-6.97-.21-12.59-.63-5.62-.42-9.85-.63-12.69-.63-2.67,0-4.36.48-5.06,1.45-.7.97-1.05,3.37-1.05,7.2v9.84c0,2.69.05,4.25.15,4.69.29,1.37,1.14,2.05,2.54,2.05.39,0,.94-.02,1.66-.07h1.66c6.39,0,12.12-.15,17.21-.46,1.99-.09,4.33-.31,7.04-.66.68-.09,1.03.31,1.03,1.19,0,1.41-.12,3.57-.37,6.47-.24,2.91-.37,5.08-.37,6.54,0,.79-.49,1.19-1.47,1.19-.39,0-1.84-.15-4.35-.46-1.83-.26-5.93-.4-12.32-.4-5.38,0-8.78.09-10.22.26-1.3.13-2.05,1.06-2.25,2.77.03-.31.05,1.39.05,5.08v9.77c0,4.58.52,7.44,1.56,8.58.81.92,2.85,1.39,6.11,1.39l5.38-.07c2.28,0,8.69-.53,19.21-1.58l.73-.07c.65-.09.98.46.98,1.65Z"/>
    <path class="cls-1" d="m829.1,1414.53c0,1.15-.29,1.72-.88,1.72-.91,0-6.68-.26-17.31-.79-.29,13.43-.44,24.19-.44,32.29,0,5.06.14,12.66.42,22.78s.42,17.72.42,22.78c0,.92-.47,1.39-1.42,1.39-.59,0-1.48-.07-2.69-.2-1.21-.13-2.12-.2-2.74-.2-.59,0-1.48.07-2.69.2-1.21.13-2.1.2-2.69.2-.82,0-1.22-.55-1.22-1.65,0-5.02.15-12.56.46-22.62.31-10.06.46-17.62.46-22.68,0-7.83-.18-18.6-.54-32.29-8.41.7-14.57,1.06-18.48,1.06-.39,0-.59-.22-.59-.66,0-.79.15-1.94.44-3.43.36-1.94.57-3.08.64-3.43.06-1.54.29-3.68.68-6.41.16-.57.44-.86.83-.86l.59.07c11.54.92,19.15,1.39,22.83,1.39,3.26,0,8.59-.33,15.99-.99,5.05-.44,7.15-.66,6.31-.66.85,0,1.32.4,1.42,1.19-.07-.48-.1,1.65-.1,6.41,0,.57.05,1.46.15,2.67s.15,2.12.15,2.74Z"/>
    <path class="cls-1" d="m899.59,1448.33c0,13.07-3.1,24.32-9.29,33.74-6.45,9.77-14.47,14.66-24.05,14.66s-17.63-4.86-24.05-14.59c-6.19-9.38-9.29-20.65-9.29-33.81s3.13-24.28,9.39-33.74c6.45-9.82,14.44-14.73,23.96-14.73s17.55,4.91,24,14.73c6.22,9.42,9.34,20.67,9.34,33.74Zm-11.78-.2c0-8.63-1.99-16.13-5.96-22.52-4.17-6.78-9.4-10.17-15.69-10.17s-11.41,3.43-15.55,10.3c-3.91,6.43-5.87,13.96-5.87,22.58s1.96,16.09,5.87,22.52c4.14,6.87,9.32,10.3,15.55,10.3s11.57-3.43,15.74-10.3c3.94-6.43,5.92-14,5.92-22.72Z"/>
    <path class="cls-1" d="m963.64,1403.5c0,5.11-.16,12.76-.46,22.95-.31,10.19-.46,17.84-.46,22.95,0,1.67.02,4.17.05,7.49.03,3.32.05,5.8.05,7.43,0,9.2-.64,15.58-1.91,19.15-1.96,5.46-5.75,9.16-11.39,11.09-3.46,1.19-8.33,1.78-14.62,1.78-11.41,0-18.89-2.55-22.44-7.66-2.74-3.96-4.11-11.89-4.11-23.77,0-1.45.02-3.91.05-7.36.03-3.46.05-6.17.05-8.15,0-5.19-.16-14.77-.49-28.73,0-3.61-.15-9-.44-16.18-.03-.53-.05-.88-.05-1.06,0-.92.42-1.39,1.27-1.39,1.34,0,3.14.02,5.43.07,2.64.04,4.43.07,5.38.07.75,0,1.12.4,1.12,1.19,0,6.69-.11,16.75-.32,30.18-.21,13.43-.32,23.49-.32,30.18,0,7.57,1.25,12.7,3.76,15.39,2.15,2.38,6.11,3.57,11.88,3.57,5.25,0,8.98-.97,11.2-2.91,2.8-2.42,4.2-6.96,4.2-13.6s-.08-17.4-.24-31.33c-.16-13.93-.24-24.38-.24-31.33,0-.7.47-1.14,1.42-1.32.68-.13,1.66-.13,2.93,0,1.5.18,2.22.26,2.15.26.59,0,1.47-.07,2.66-.2,1.19-.13,2.08-.2,2.66-.2.81,0,1.22.48,1.22,1.45Z"/>
    <path class="cls-1" d="m1026.56,1494.16c0,.35-.26.53-.78.53-.62,0-1.56-.07-2.83-.2s-2.22-.2-2.83-.2c-.69,0-1.7.07-3.06.2s-2.37.2-3.05.2c-.75,0-1.32-.55-1.71-1.65-1.04-2.99-4.01-12.26-8.9-27.8-.49-1.58-1.68-2.55-3.57-2.91-.42-.04-1.91-.07-4.45-.07-4.5,0-7.17.09-8.02.26-.68.13-1.03,1.25-1.03,3.37,0,3.08.1,7.69.32,13.83.21,6.14.32,10.73.32,13.77,0,.92-.33,1.39-.98,1.39s-1.64-.1-2.96-.3c-1.32-.2-2.32-.3-3.01-.3-.55,0-1.4.07-2.54.2-1.14.13-1.99.2-2.54.2-.81,0-1.22-.51-1.22-1.52,0-4.89.17-12.23.51-22.02.34-9.79.51-17.14.51-22.02,0-13.91-.38-28.75-1.12-44.51l-.05-1.06c-.03-.88.65-1.32,2.05-1.32,2.8,0,7-.1,12.59-.3,5.59-.2,9.77-.3,12.54-.3,7.24,0,13.04,2.33,17.4,7,4.82,5.15,7.24,12.46,7.24,21.92,0,6.52-.65,11.64-1.96,15.39-1.37,3.96-3.91,7.73-7.63,11.29-.62.57-.93,1.12-.93,1.65,0,.62,1.95,6.47,5.84,17.56,3.89,11.09,5.84,16.99,5.84,17.7Zm-13.4-59.89c0-7.97-1.69-13.29-5.08-15.98-2.51-1.98-7.02-2.97-13.54-2.97-5.28,0-7.97.57-8.07,1.72-.23,2.38-.34,8.74-.34,19.08v12.61c.1.09.31.18.64.26.59.09,1.55.2,2.88.33,3.1.22,6.44.33,10.02.33,9,0,13.49-5.13,13.49-15.39Z"/>
    <path class="cls-1" d="m1118.42,1447.87c0,12.37-2.61,23.07-7.82,32.09-5.67,9.82-12.94,14.73-21.8,14.73-1.7,0-4.25-.09-7.65-.26s-5.96-.26-7.65-.26c-1.53,0-3.84.09-6.92.26s-5.39.26-6.92.26c-.82,0-1.22-.55-1.22-1.65,0-4.8.14-12.04.42-21.73.28-9.68.42-16.95.42-21.79,0-5.11-.13-12.79-.39-23.05-.26-10.26-.39-17.94-.39-23.05,0-.92.42-1.39,1.27-1.39,1.21,0,3.01.02,5.4.07s4.2.07,5.4.07c1.11,0,2.8-.02,5.08-.07,2.28-.04,4.01-.07,5.18-.07,11.31,0,19.73,2.88,25.28,8.65,3.98,4.14,7.06,9.71,9.24,16.71,2.05,6.52,3.08,13.34,3.08,20.47Zm-11.98,0c0-9.51-2-17.26-6.01-23.24-4.17-6.21-9.75-9.31-16.72-9.31-5.77,0-8.1-.04-6.99-.13-3.81.26-5.72,1.21-5.72,2.84,0,3.39-.06,8.46-.17,15.22s-.17,11.83-.17,15.22.06,8.36.17,15.06c.11,6.69.17,11.71.17,15.06,0,1.67,1.96,2.64,5.87,2.91-.52-.04,1.86-.07,7.14-.07,3.75,0,6.73-.53,8.95-1.58,2.74-1.32,5.2-3.76,7.38-7.33,4.07-6.69,6.11-14.9,6.11-24.63Z"/>
    <path class="cls-1" d="m1172.63,1481.42c0,.7-.13,1.72-.39,3.04-.29,1.67-.47,2.69-.54,3.04-.1,1.58-.33,3.9-.68,6.93-.16.79-.59,1.19-1.27,1.19-.33,0-.95-.09-1.86-.26-4.01-.79-10.22-1.19-18.63-1.19-2.38,0-5.96.09-10.76.26-4.79.18-8.38.26-10.75.26-1.08,0-1.61-.64-1.61-1.92,0-4.93.2-12.34.61-22.22.41-9.88.61-17.29.61-22.22s-.2-14.37-.59-28.06c-.07-3.52-.24-8.78-.54-15.78l-.05-.92c-.03-1.01.39-1.52,1.27-1.52,2.28,0,5.7.09,10.27.26,4.56.18,7.98.26,10.27.26s5.45-.09,9.8-.26c4.35-.17,7.62-.26,9.8-.26,1.53,0,2.36.64,2.49,1.92.69,5.81,1.03,9.42,1.03,10.83,0,1.01-.36,1.52-1.08,1.52-2.77,0-6.97-.21-12.59-.63-5.62-.42-9.85-.63-12.69-.63-2.67,0-4.36.48-5.06,1.45-.7.97-1.05,3.37-1.05,7.2v9.84c0,2.69.05,4.25.15,4.69.29,1.37,1.14,2.05,2.54,2.05.39,0,.95-.02,1.66-.07h1.66c6.39,0,12.12-.15,17.21-.46,1.99-.09,4.33-.31,7.04-.66.68-.09,1.03.31,1.03,1.19,0,1.41-.12,3.57-.37,6.47-.25,2.91-.37,5.08-.37,6.54,0,.79-.49,1.19-1.47,1.19-.39,0-1.84-.15-4.35-.46-1.83-.26-5.93-.4-12.32-.4-5.38,0-8.78.09-10.22.26-1.3.13-2.05,1.06-2.25,2.77.03-.31.05,1.39.05,5.08v9.77c0,4.58.52,7.44,1.56,8.58.81.92,2.85,1.39,6.11,1.39l5.38-.07c2.28,0,8.68-.53,19.21-1.58l.73-.07c.65-.09.98.46.98,1.65Z"/>
    <path class="cls-1" d="m1258.04,1466.16c0,7.66-1.71,14.24-5.13,19.74-3.62,5.77-8.21,8.65-13.79,8.65-2.09,0-5.22-.07-9.41-.2s-7.33-.2-9.41-.2c-1.53,0-3.84.09-6.92.26s-5.39.26-6.92.26c-.81,0-1.22-.51-1.22-1.52,0-4.84.17-12.12.51-21.82s.51-16.98.51-21.82c0-5.11-.17-12.78-.51-23.01s-.51-17.91-.51-23.01c0-.97.41-1.45,1.22-1.45,2.9,0,7.27.02,13.1.07s10.22.07,13.15.07c6.84,0,12.3,1.72,16.38,5.15,4.95,4.18,7.43,10.68,7.43,19.48,0,3.04-.65,6.2-1.96,9.48-1.3,3.28-2.88,5.76-4.74,7.43-.95.84-1.42,1.39-1.42,1.65s.47.75,1.42,1.45c2.48,1.85,4.46,4.57,5.96,8.16,1.5,3.59,2.25,7.32,2.25,11.19Zm-13.74-37.9c0-6.21-2.05-10.39-6.16-12.55-2.48-1.28-6.54-1.92-12.17-1.92s-8.21.55-8.21,1.65c0,1.45-.05,3.63-.15,6.54s-.15,5.11-.15,6.6c0,1.01.02,2.58.05,4.69.03,2.11.05,3.7.05,4.75,0,1.28,3.68,1.92,11.05,1.92,10.46,0,15.69-3.9,15.69-11.69Zm1.32,37.24c0-5.37-1.78-9-5.33-10.9-2.25-1.23-5.75-1.85-10.51-1.85-8.21,0-12.32.59-12.32,1.78v10.83c0,1.58.03,4.01.1,7.26.06,3.26.1,5.7.1,7.33,0,.44,1.04.77,3.13.99,2.09.22,5.18.33,9.29.33,5.15,0,8.85-.9,11.1-2.71,2.96-2.38,4.45-6.74,4.45-13.07Z"/>
    <path class="cls-1" d="m1330.98,1448.33c0,13.07-3.1,24.32-9.29,33.74-6.45,9.77-14.47,14.66-24.05,14.66s-17.63-4.86-24.05-14.59c-6.19-9.38-9.29-20.65-9.29-33.81s3.13-24.28,9.39-33.74c6.45-9.82,14.44-14.73,23.96-14.73s17.55,4.91,24,14.73c6.22,9.42,9.34,20.67,9.34,33.74Zm-11.78-.2c0-8.63-1.99-16.13-5.96-22.52-4.17-6.78-9.4-10.17-15.69-10.17s-11.41,3.43-15.55,10.3c-3.91,6.43-5.87,13.96-5.87,22.58s1.96,16.09,5.87,22.52c4.14,6.87,9.32,10.3,15.55,10.3s11.57-3.43,15.74-10.3c3.94-6.43,5.92-14,5.92-22.72Z"/>
    <path class="cls-1" d="m1395.03,1403.5c0,5.11-.16,12.76-.46,22.95-.31,10.19-.46,17.84-.46,22.95,0,1.67.02,4.17.05,7.49.03,3.32.05,5.8.05,7.43,0,9.2-.64,15.58-1.91,19.15-1.96,5.46-5.75,9.16-11.39,11.09-3.46,1.19-8.33,1.78-14.62,1.78-11.41,0-18.89-2.55-22.44-7.66-2.74-3.96-4.11-11.89-4.11-23.77,0-1.45.02-3.91.05-7.36.03-3.46.05-6.17.05-8.15,0-5.19-.16-14.77-.49-28.73,0-3.61-.15-9-.44-16.18-.03-.53-.05-.88-.05-1.06,0-.92.42-1.39,1.27-1.39,1.34,0,3.14.02,5.43.07,2.64.04,4.43.07,5.38.07.75,0,1.12.4,1.12,1.19,0,6.69-.11,16.75-.32,30.18-.21,13.43-.32,23.49-.32,30.18,0,7.57,1.25,12.7,3.76,15.39,2.15,2.38,6.11,3.57,11.88,3.57,5.25,0,8.98-.97,11.2-2.91,2.8-2.42,4.2-6.96,4.2-13.6s-.08-17.4-.24-31.33c-.16-13.93-.25-24.38-.25-31.33,0-.7.47-1.14,1.42-1.32.68-.13,1.66-.13,2.93,0,1.5.18,2.22.26,2.15.26.59,0,1.47-.07,2.66-.2,1.19-.13,2.08-.2,2.66-.2.81,0,1.22.48,1.22,1.45Z"/>
    <path class="cls-1" d="m1452.08,1415.58c0,.84-.34,1.25-1.03,1.25-2.54,0-6.71-.2-12.52-.59-5.41-.35-9.58-.48-12.51-.4l-3.57.07c-2.28.04-3.49.11-3.62.2-.65.35-.98,1.74-.98,4.16v15.91c0,2.99.47,4.49,1.42,4.49,3.16,0,7.93-.2,14.3-.59,6.37-.4,11.14-.59,14.3-.59.68,0,1.03.35,1.03,1.06,0,.75-.04,1.86-.12,3.33-.08,1.48-.12,2.59-.12,3.33,0,.79.03,1.99.1,3.6.07,1.61.1,2.81.1,3.6,0,.53-.34.79-1.03.79-2.25,0-5.66-.09-10.24-.26s-8.01-.26-10.29-.26c-4.2,0-6.58.04-7.14.13-1.47.22-2.2,1.04-2.2,2.44,0,3.96.08,9.91.24,17.83s.24,13.87.24,17.83c0,1.32-.39,1.98-1.17,1.98-.65,0-1.62-.1-2.91-.3-1.29-.2-2.27-.3-2.96-.3-.55,0-1.4.07-2.54.2s-1.99.2-2.54.2c-.82,0-1.22-.48-1.22-1.45,0-4.89.15-12.24.46-22.05.31-9.82.46-17.17.46-22.06,0-4.53-.34-19.28-1.03-44.24v-.86c-.03-.92.38-1.45,1.22-1.58.26,0,2.33.07,6.21.2,5.12.13,9.86.16,14.23.07,5.9-.09,13.41-.53,22.54-1.32,1.24-.13,1.94.59,2.1,2.18-.03,1.19.03,2.99.2,5.42.39,3.39.59,5.59.59,6.6Z"/>
    <path class="cls-1" d="m1505.47,1415.58c0,.84-.34,1.25-1.03,1.25-2.54,0-6.71-.2-12.52-.59-5.41-.35-9.58-.48-12.51-.4l-3.57.07c-2.28.04-3.49.11-3.62.2-.65.35-.98,1.74-.98,4.16v15.91c0,2.99.47,4.49,1.42,4.49,3.16,0,7.93-.2,14.3-.59,6.37-.4,11.14-.59,14.3-.59.68,0,1.03.35,1.03,1.06,0,.75-.04,1.86-.12,3.33-.08,1.48-.12,2.59-.12,3.33,0,.79.03,1.99.1,3.6.07,1.61.1,2.81.1,3.6,0,.53-.34.79-1.03.79-2.25,0-5.66-.09-10.24-.26s-8.01-.26-10.29-.26c-4.2,0-6.58.04-7.14.13-1.47.22-2.2,1.04-2.2,2.44,0,3.96.08,9.91.24,17.83s.24,13.87.24,17.83c0,1.32-.39,1.98-1.17,1.98-.65,0-1.62-.1-2.91-.3-1.29-.2-2.27-.3-2.96-.3-.55,0-1.4.07-2.54.2s-1.99.2-2.54.2c-.82,0-1.22-.48-1.22-1.45,0-4.89.15-12.24.46-22.05.31-9.82.46-17.17.46-22.06,0-4.53-.34-19.28-1.03-44.24v-.86c-.03-.92.38-1.45,1.22-1.58.26,0,2.33.07,6.21.2,5.12.13,9.86.16,14.23.07,5.9-.09,13.41-.53,22.54-1.32,1.24-.13,1.94.59,2.1,2.18-.03,1.19.03,2.99.2,5.42.39,3.39.59,5.59.59,6.6Z"/>
    <path class="cls-1" d="m1558.17,1481.42c0,.7-.13,1.72-.39,3.04-.29,1.67-.47,2.69-.54,3.04-.1,1.58-.33,3.9-.68,6.93-.16.79-.59,1.19-1.27,1.19-.33,0-.95-.09-1.86-.26-4.01-.79-10.22-1.19-18.63-1.19-2.38,0-5.96.09-10.75.26s-8.38.26-10.76.26c-1.08,0-1.61-.64-1.61-1.92,0-4.93.2-12.34.61-22.22.41-9.88.61-17.29.61-22.22s-.2-14.37-.59-28.06c-.07-3.52-.24-8.78-.54-15.78l-.05-.92c-.03-1.01.39-1.52,1.27-1.52,2.28,0,5.7.09,10.27.26,4.56.18,7.98.26,10.27.26s5.45-.09,9.8-.26c4.35-.17,7.62-.26,9.8-.26,1.53,0,2.36.64,2.49,1.92.68,5.81,1.03,9.42,1.03,10.83,0,1.01-.36,1.52-1.08,1.52-2.77,0-6.97-.21-12.59-.63-5.62-.42-9.85-.63-12.69-.63-2.67,0-4.36.48-5.06,1.45-.7.97-1.05,3.37-1.05,7.2v9.84c0,2.69.05,4.25.15,4.69.29,1.37,1.14,2.05,2.54,2.05.39,0,.95-.02,1.66-.07h1.66c6.39,0,12.12-.15,17.21-.46,1.99-.09,4.33-.31,7.04-.66.68-.09,1.03.31,1.03,1.19,0,1.41-.12,3.57-.37,6.47s-.37,5.08-.37,6.54c0,.79-.49,1.19-1.47,1.19-.39,0-1.84-.15-4.35-.46-1.83-.26-5.93-.4-12.32-.4-5.38,0-8.78.09-10.22.26-1.3.13-2.05,1.06-2.25,2.77.03-.31.05,1.39.05,5.08v9.77c0,4.58.52,7.44,1.56,8.58.81.92,2.85,1.39,6.11,1.39l5.38-.07c2.28,0,8.69-.53,19.21-1.58l.73-.07c.65-.09.98.46.98,1.65Z"/>
    <path class="cls-1" d="m1618.59,1494.16c0,.35-.26.53-.78.53-.62,0-1.56-.07-2.84-.2-1.27-.13-2.22-.2-2.83-.2-.68,0-1.7.07-3.06.2-1.35.13-2.37.2-3.06.2-.75,0-1.32-.55-1.71-1.65-1.04-2.99-4.01-12.26-8.9-27.8-.49-1.58-1.68-2.55-3.57-2.91-.42-.04-1.91-.07-4.45-.07-4.5,0-7.17.09-8.02.26-.68.13-1.03,1.25-1.03,3.37,0,3.08.11,7.69.32,13.83.21,6.14.32,10.73.32,13.77,0,.92-.33,1.39-.98,1.39s-1.64-.1-2.96-.3c-1.32-.2-2.32-.3-3.01-.3-.55,0-1.4.07-2.54.2s-1.99.2-2.54.2c-.82,0-1.22-.51-1.22-1.52,0-4.89.17-12.23.51-22.02.34-9.79.51-17.14.51-22.02,0-13.91-.38-28.75-1.12-44.51l-.05-1.06c-.03-.88.65-1.32,2.05-1.32,2.8,0,7-.1,12.59-.3,5.59-.2,9.77-.3,12.54-.3,7.24,0,13.04,2.33,17.4,7,4.82,5.15,7.24,12.46,7.24,21.92,0,6.52-.65,11.64-1.96,15.39-1.37,3.96-3.91,7.73-7.63,11.29-.62.57-.93,1.12-.93,1.65,0,.62,1.95,6.47,5.84,17.56,3.89,11.09,5.84,16.99,5.84,17.7Zm-13.4-59.89c0-7.97-1.7-13.29-5.08-15.98-2.51-1.98-7.02-2.97-13.54-2.97-5.28,0-7.97.57-8.07,1.72-.23,2.38-.34,8.74-.34,19.08v12.61c.1.09.31.18.64.26.59.09,1.55.2,2.88.33,3.1.22,6.44.33,10.02.33,9,0,13.49-5.13,13.49-15.39Z"/>
  </g>
  <g>
    <path class="cls-1" d="m1123.87,172c1.28,1.56,2.71,3.39,8,11,8.6,12.38,12.9,18.57,16,24,2.82,4.95,6.49,12,10,21,3.36,5.64,6.94,12.66,10,21,2.38,6.49,3.99,12.52,5.09,17.84,3.35,10.65,6.55,22.1,9.44,34.28,21.31-20.99,31.95-48.41,31.9-82.28,0-.01,0-.02,0-.03-.23-6.24-.92-13.25-2.43-20.81-3.64-18.29-10.59-32.68-16.62-42.69-.05-.07-.11-.15-.16-.22-3.63-4.79-7.96-9.24-13-13.34-.42-.34-.83-.66-1.25-.98-6.42-4.75-12.62-7.57-17.2-9.25-.02,0-.04-.01-.06-.02-5.16-.8-15.23-1.64-26.7,2.49-3.2,1.15-6.09,2.54-8.71,4.07-1.7,1.12-3.4,2.35-5.1,3.71-5.46,4.34-10.13,9.36-14.07,15.01-.04.07-.09.15-.13.21,3.86,3.17,9.34,8.11,15,15Z"/>
    <path class="cls-1" d="m1016.37,0c-275.87,0-499.5,220.07-499.5,491.54s223.63,491.54,499.5,491.54,499.5-220.07,499.5-491.54S1292.23,0,1016.37,0Zm16.5,815c-4.28,16.36-11.14,28.79-16.5,36.88-4.57,9.26-13.19,23.74-28.5,37.12-19.27,16.83-39.31,23.35-50,26-10.17,2.61-28.16,5.82-50,2-26.19-4.58-44.28-16.86-52.88-23.6-9.56-6.58-22.08-16.68-34.12-31.4-12.82-15.66-20.46-30.89-25-42-4.32-10.55-13.15-28.89-22-59-6.27-21.32-13.32-50.05-18-85-6.32-29.67-11.85-61.74-16-96-7.81-64.52-9.07-123.46-7-175,.68-9.11,2.48-20.9,7-34,3.3-9.58,7.28-17.6,11-24,3.48-8.53,12.92-12.77,21-10,7.16,2.46,11.89,9.96,11,18-1.72,1.51-6.18,5.8-8,13-2.04,8.07.52,14.6,1.4,16.6,5.84,25.47,12.48,45.53,17.6,59.4,4.95,13.41,6.95,16.91,21,53,5.68,14.59,8.52,21.89,12,31,9.84,25.8,12.28,33.12,18,45,5.72,11.87,11.26,21.11,15,27-4.84-24.78-9-44.34-12-58-1.96-8.93-4.12-18.53-7-33-.52-2.62-2.44-12.27-6-32-3.63-20.11-6.22-35.37-7-40-5.92-34.96-13.73-69.7-17-105-2.01-21.73-2.65-39.71-2.86-51.81-.16-6.53,4.56-12.18,10.86-13.19,6.05-.97,12.07,2.58,14.21,8.46,3.48,7.97,8.57,20.23,13.79,35.54,8.79,25.75,8.6,32.62,17,62,7.93,27.72,10.43,29.75,23,70,5.83,18.67,10.22,34.02,13,44,6.56,20.89,15.01,43.81,26,68,15.41,33.94,32.34,62.77,48.33,86.52,1.34,1.58,5.83,7.26,5.67,15.48-.09,4.75-1.69,8.39-2.76,10.36-4.38-.78-8.76-1.56-13.14-2.33-5.8-5.46-12.01-12.09-18.1-20.02-12.16-15.85-19.56-31.37-24.14-43.59-20.37-50.24-40.23-104.07-58.86-161.41-11.13-34.26-21.15-67.71-30.18-100.23,2.94,18.97,8.13,52.48,11.18,72.23,11.84,76.71,12.3,80.21,15,92,12,52.35,18,78.52,19,82,1.09,3.8,4.76,16.27,5,33,.06,3.85-.08,7.03-.21,9.13.49,5.27-1.73,10.31-5.79,12.87-5.5,3.47-13.69,1.96-18.41-4.24-2.44-2.18-5.02-4.75-7.59-7.76-6.46-7.6-9.78-14.49-11.48-17.95-10.57-21.56-11.78-19.69-21.52-41.05-6.88-15.09-11.27-26.94-17-43-7.01-19.63-16.14-45.79-26.55-77.42-.91,11.63-1.46,24.14-1.45,37.42.01,10.52.38,20.54,1,30,2.07,20.63,6.14,45.12,14,72,10.2,34.9,23.73,63.4,36,85,13.33,23.47,21.57,37.43,24,41,9.19,13.47,20.3,29.53,39,46,10.5,9.25,20.16,15.78,27,20,2.45-7.48,11.28-31.18,36-47,34.26-21.92,70.86-10.68,76-9,7.36,6.87,17.91,18.65,25,36,3.15,7.71,4.95,14.89,6,21,.12,8.56-.6,20.01-4,33Zm345.11-372.63c-1.36,1.08-3.49,1.58-6.38,1.53-.56.05-1.13.09-1.74.1-3.84.06-6.66-.91-9.8-2.14-1.79-.5-3.7-1.08-5.74-1.76-5.98-1.87-13.41-4.18-22.3-6.93-9.97-2.85-21.6-6.58-34.85-11.2-.02,0-.04-.01-.06-.02-9.1-2.87-16.93-5.88-33.2-12.12-3.61-1.37-7.3-2.78-11.08-4.24-20.25-7.74-39.91-15.63-58.97-23.6.84,10,1.64,22.53,2,37,.1,3.95.34,15.17,0,31-.41,19.3-1.92,38.89-4,64-1.1,13.28-3.58,29.72-9,48-5.26,17.73-11.88,32.48-18,44-4.4,8.88-10.79,19.75-20,31-7.97,9.74-16.04,17.3-23,23-4.8,4.19-12.1,9.63-22,14-10.73,4.73-20.39,6.39-27,7-1.45-.69-8.15-4.09-11-12-3.72-10.33,2.43-19.2,3-20,7.75-2.29,19.41-6.77,31-16,3.08-2.46,12.03-9.91,24-29,7.32-11.67,16.8-29.33,24-53,4.38-17.35,8.48-40.95,8-69-.41-23.93-4.03-44.33-8-60.04-4.98-17.45-11.47-36.63-20-56.96-6.77-16.15-13.91-30.82-21-44-12.5-15.15-23.98-27.15-33-36-22.76-22.35-34.75-29.48-46-34-4.96-2-9.19-3.25-12-4-9,6.61-18,13.23-27,19.84-5.51,3.85-13.54,8.6-24,12.16-10.26,3.5-19.36,4.66-26,5-2.09.61-5.25,1.37-9.18,1.72-2.25.21-7.52.52-13.82-.72-10.32-2.03-17.33-7.05-20-9-13.85-10.12-18.89-24.65-21-31-6.81-20.5-2.33-38.56,0-46,1.65-6.85,4.6-15.31,10-24,2.1-3.38,5.98-9.06,12-15,4.8-4.74,7.58-6.31,15-12,4.36-3.35,10.63-8.36,18-15,6.45-4.51,15.48-9.84,27-14,9.49-3.43,18.09-5.14,25-6,12.39-2.08,33.29-3.94,58,2,20.7,4.98,36.24,13.55,46,20,3.53-4.83,9.8-12.22,19.53-18.78,7.91-5.61,16.27-9.32,25.07-11.15,2.48-.62,4.71-1.05,6.6-1.35,2.1-.07,4.54-.09,7.27.02,2.87.03,5.77.22,8.72.62,8.28,1.12,16.22,3.28,23.83,6.45.44.18.88.37,1.31.55.24.1.48.2.72.31,10.38,4.53,18.14,10.1,23.33,14.44.73.6,1.49,1.25,2.27,1.92,22.91,19.38,37.48,43.44,43.64,72.18,3.84,18.36,3.51,36.71-.94,55.05-.03.13-.06.26-.09.39-.17.68-.32,1.36-.5,2.04-2.66,10.53-6.25,19.18-9.46,25.72-3.78,8.63-9.79,19.93-19.3,31.59-8.39,10.28-17,17.77-24,23-.01-.07-.03-.14-.04-.21-.07.05-.14.11-.21.16.86,5.47,1.61,10.83,2.25,16.05,13.13,5.73,26.64,11.39,40.53,16.95,18.26,6.75,40.98,15.17,68.17,25.26.77.26,1.53.53,2.3.79,15.58,5.29,30.93,10.19,45.99,14.75.04.01.08.02.12.03,3.37.76,7.04,1.76,10.93,3.05,1.14.32,2.29.63,3.47.95,5.95,1.63,10.57,3.79,13.87,6.47,1.97,1.6,3.3,3.62,3.99,6.03.87,2.19,1.35,4.84.64,7.71-.57,2.32-1.75,4.05-2.78,5.23-.34.43-.71.82-1.11,1.14Z"/>
  </g>
</svg>