<?xml version="1.0" encoding="UTF-8"?>
<svg id="Calque_1" data-name="Calque 1" xmlns="http://www.w3.org/2000/svg" viewBox="0 0 2961.57 2914.36">
  <defs>
    <style>
      .cls-1 {
        fill: #5ceb70;
      }
    </style>
  </defs>
  <path class="cls-1" d="m1799.47,509.9c3.79,4.62,8.03,10.05,23.72,32.61,25.49,36.7,38.24,55.05,47.43,71.15,8.36,14.67,19.24,35.57,29.65,62.26,9.96,16.72,20.57,37.53,29.65,62.26,7.06,19.24,11.83,37.12,15.09,52.89,9.94,31.56,19.42,65.51,27.98,101.63,63.17-62.21,94.71-143.51,94.58-243.91,0-.03,0-.07,0-.1-.68-18.5-2.73-39.28-7.2-61.69-10.79-54.22-31.39-96.88-49.27-126.56-.15-.21-.33-.43-.48-.65-10.75-14.19-23.59-27.38-38.55-39.54-1.24-1-2.47-1.96-3.71-2.92-19.04-14.09-37.4-22.43-50.98-27.41-.06-.02-.12-.03-.18-.05-15.29-2.37-45.16-4.86-79.16,7.39-9.47,3.41-18.06,7.54-25.81,12.07-5.03,3.33-10.07,6.97-15.11,10.99-16.17,12.88-30.04,27.74-41.7,44.51-.12.19-.27.43-.39.61,11.44,9.4,27.69,24.04,44.47,44.47Z"/>
  <path class="cls-1" d="m1480.78,0C662.97,0,0,652.4,0,1457.18s662.97,1457.18,1480.78,1457.18,1480.78-652.4,1480.78-1457.18S2298.6,0,1480.78,0Zm48.91,2416.09c-12.7,48.51-33.03,85.34-48.91,109.34-13.54,27.45-39.09,70.37-84.49,110.04-57.12,49.91-116.53,69.21-148.23,77.08-30.15,7.75-83.48,17.24-148.23,5.93-77.65-13.57-131.27-49.99-156.76-69.96-28.33-19.5-65.45-49.45-101.15-93.09-37.99-46.44-60.65-91.58-74.11-124.51-12.79-31.28-38.97-85.64-65.22-174.91-18.58-63.2-39.49-148.36-53.36-251.99-18.73-87.97-35.14-183.02-47.43-284.59-23.15-191.29-26.89-366-20.75-518.79,2.02-27,7.37-61.95,20.75-100.79,9.79-28.41,21.57-52.19,32.61-71.15,10.33-25.29,38.31-37.86,62.26-29.65,21.23,7.28,35.24,29.51,32.61,53.36-5.11,4.47-18.31,17.18-23.72,38.54-6.05,23.91,1.54,43.27,4.15,49.21,17.3,75.5,37,134.96,52.18,176.09,14.67,39.74,20.59,50.13,62.26,157.12,16.85,43.27,25.27,64.9,35.57,91.9,29.18,76.48,36.39,98.18,53.36,133.4,16.95,35.18,33.38,62.58,44.47,80.04-14.35-73.46-26.69-131.44-35.57-171.94-5.8-26.47-12.21-54.93-20.75-97.83-1.55-7.78-7.22-36.39-17.79-94.86-10.77-59.62-18.43-104.85-20.75-118.58-17.55-103.63-40.7-206.61-50.4-311.28-5.97-64.41-7.85-117.71-8.49-153.59-.46-19.35,13.51-36.12,32.2-39.11,17.93-2.87,35.79,7.65,42.12,25.09,10.32,23.64,25.4,59.98,40.89,105.35,26.07,76.34,25.48,96.69,50.4,183.8,23.51,82.18,30.93,88.19,68.18,207.52,17.28,55.34,30.3,100.86,38.54,130.44,19.45,61.94,44.51,129.87,77.08,201.59,45.69,100.61,95.88,186.09,143.26,256.5,3.97,4.68,17.28,21.51,16.82,45.88-.26,14.09-5.02,24.86-8.18,30.7-12.98-2.31-25.97-4.61-38.95-6.92-17.19-16.19-35.62-35.83-53.67-59.35-36.04-46.98-57.97-93.01-71.56-129.23-60.39-148.93-119.27-308.51-174.49-478.5-32.99-101.56-62.69-200.72-89.46-297.14,8.72,56.22,24.09,155.57,33.13,214.14,35.11,227.42,36.46,237.8,44.47,272.74,35.58,155.19,53.37,232.79,56.33,243.09,3.23,11.26,14.11,48.23,14.82,97.83.16,11.43-.25,20.84-.63,27.06,1.44,15.61-5.12,30.57-17.15,38.16-16.29,10.29-40.6,5.81-54.59-12.56-7.24-6.45-14.88-14.07-22.49-23.02-19.15-22.52-28.99-42.95-34.03-53.22-31.35-63.92-34.92-58.38-63.8-121.69-20.4-44.73-33.4-79.88-50.4-127.47-20.78-58.18-47.83-135.76-78.72-229.53-2.71,34.48-4.34,71.56-4.28,110.95.04,31.19,1.13,60.89,2.96,88.94,6.13,61.14,18.21,133.76,41.5,213.45,30.24,103.46,70.35,187.95,106.72,251.99,39.51,69.58,63.93,110.97,71.15,121.55,27.24,39.92,60.19,87.54,115.62,136.37,31.13,27.43,59.75,46.77,80.04,59.29,7.28-22.18,33.45-92.44,106.72-139.33,101.56-64.99,210.06-31.65,225.3-26.68,21.81,20.37,53.09,55.28,74.11,106.72,9.34,22.85,14.69,44.14,17.79,62.26.36,25.37-1.78,59.31-11.86,97.83Zm1023.09-1104.67c-4.02,3.2-10.35,4.69-18.9,4.52-1.66.16-3.36.28-5.14.3-11.38.17-19.73-2.69-29.05-6.33-5.32-1.48-10.97-3.19-17.01-5.21-17.72-5.54-39.76-12.39-66.1-20.53-29.57-8.44-64.03-19.52-103.32-33.21-.05-.02-.13-.04-.18-.06-26.98-8.52-50.18-17.44-98.43-35.92-10.69-4.05-21.65-8.25-32.85-12.57-60.04-22.95-118.32-46.33-174.81-69.97,2.49,29.65,4.86,66.79,5.93,109.69.3,11.71,1.01,44.97,0,91.9-1.22,57.22-5.69,115.29-11.86,189.73-3.26,39.37-10.61,88.11-26.68,142.3-15.59,52.56-35.22,96.29-53.36,130.44-13.04,26.33-31.99,58.55-59.29,91.9-23.63,28.87-47.55,51.29-68.18,68.18-14.23,12.42-35.87,28.55-65.22,41.5-31.81,14.02-60.45,18.94-80.04,20.75-4.3-2.05-24.16-12.13-32.61-35.57-11.03-30.62,7.2-56.92,8.89-59.29,22.98-6.79,57.54-20.07,91.9-47.43,9.13-7.29,35.66-29.38,71.15-85.97,21.7-34.6,49.8-86.95,71.15-157.12,12.98-51.43,25.14-121.4,23.72-204.55-1.22-70.94-11.95-131.42-23.72-177.99-14.76-51.73-34-108.59-59.29-168.86-20.07-47.88-41.24-91.37-62.26-130.44-37.06-44.91-71.09-80.49-97.83-106.72-67.47-66.26-103.02-87.39-136.37-100.79-14.7-5.93-27.24-9.63-35.57-11.86-26.68,19.6-53.36,39.22-80.04,58.82-16.33,11.41-40.14,25.5-71.15,36.05-30.42,10.38-57.39,13.81-77.08,14.82-6.2,1.81-15.56,4.06-27.21,5.1-6.67.62-22.29,1.54-40.97-2.13-30.59-6.02-51.38-20.9-59.29-26.68-41.06-30-56-73.08-62.26-91.9-20.19-60.77-6.91-114.31,0-136.37,4.89-20.31,13.64-45.39,29.65-71.15,6.23-10.02,17.73-26.86,35.57-44.47,14.23-14.05,22.47-18.71,44.47-35.57,12.93-9.93,31.51-24.78,53.36-44.47,19.12-13.37,45.89-29.17,80.04-41.5,28.13-10.17,53.63-15.24,74.11-17.79,36.73-6.17,98.69-11.68,171.94,5.93,61.37,14.76,107.43,40.17,136.37,59.29,10.48-14.31,29.06-36.22,57.9-55.67,23.46-16.62,48.24-27.63,74.32-33.06,7.36-1.83,13.98-3.11,19.56-3.99,6.23-.22,13.47-.26,21.56.06,8.5.09,17.1.66,25.85,1.83,24.53,3.32,48.07,9.72,70.65,19.11,1.31.54,2.6,1.09,3.89,1.64.71.31,1.42.6,2.13.91,30.78,13.42,53.79,29.95,69.16,42.8,2.17,1.79,4.43,3.71,6.74,5.7,67.93,57.47,111.1,128.77,129.37,213.98,11.39,54.43,10.41,108.83-2.77,163.21-.09.39-.19.78-.28,1.17-.5,2.01-.95,4.03-1.48,6.05-7.9,31.2-18.53,56.87-28.05,76.25-11.21,25.58-29.02,59.08-57.22,93.65-24.87,30.48-50.4,52.68-71.15,68.18-.04-.21-.08-.42-.12-.63-.2.15-.41.31-.62.47,2.54,16.22,4.78,32.12,6.67,47.59,38.92,17,78.97,33.78,120.15,50.26,54.14,20,121.49,44.96,202.09,74.88,2.28.78,4.54,1.56,6.82,2.34,46.19,15.68,91.68,30.21,136.34,43.71.12.03.24.07.36.1,9.98,2.26,20.86,5.2,32.4,9.05,3.39.93,6.8,1.87,10.27,2.83,17.63,4.84,31.34,11.24,41.11,19.19,5.85,4.76,9.78,10.72,11.82,17.89,2.59,6.51,4.01,14.35,1.9,22.85-1.7,6.87-5.18,12.01-8.24,15.51-1.01,1.27-2.09,2.43-3.29,3.38Z"/>
</svg>