<?xml version="1.0" encoding="utf-8"?>
<!-- Generator: Adobe Illustrator 27.5.0, SVG Export Plug-In . SVG Version: 6.00 Build 0)  -->
<svg version="1.1" id="Calque_1" xmlns="http://www.w3.org/2000/svg" xmlns:xlink="http://www.w3.org/1999/xlink" x="0px" y="0px"
	 viewBox="0 0 3000 3000" style="enable-background:new 0 0 3000 3000;" xml:space="preserve">
<style type="text/css">
	.st0{display:none;fill:#6F99D9;}
	.st1{font-family:'PoorRichard-Regular';}
	.st2{font-size:345px;}
	.st3{fill:none;}
	.st4{display:none;}
	.st5{display:none;fill:#5CEB70;stroke:#FFFFFF;stroke-width:14;stroke-miterlimit:10;}
	.st6{fill:#5CEB70;}
	.st7{fill:#FFFFFF;}
	.st8{fill:#1A1A1A;}
</style>
<text transform="matrix(1 0 0 1 -864.7998 3281.0669)" class="st0 st1 st2">MONEY ROUND</text>
<rect x="1119.73" y="1597.57" transform="matrix(0.9758 -0.2185 0.2185 0.9758 -322.5753 284.9146)" class="st3" width="14.87" height="7.28"/>
<g class="st4">
</g>
<g class="st4">
</g>
<rect x="689.8" y="1332.64" class="st3" width="92" height="94.76"/>
<g class="st4">
</g>
<rect x="2967.87" y="6214" class="st3" width="51.2" height="29.87"/>
<rect x="2967.87" y="5297" class="st3" width="51.2" height="29.87"/>
<rect x="2886.87" y="1317" class="st3" width="51.2" height="29.87"/>
<line class="st3" x1="59" y1="2065" x2="218" y2="2065"/>
<rect x="533" y="733" class="st5" width="669.09" height="668"/>
<rect x="1197.82" y="733" class="st5" width="669.09" height="668"/>
<rect x="1866.91" y="733" class="st5" width="669.09" height="668"/>
<g>
	<path class="st6" d="M1479,102C713.7,102,93.3,699.25,93.3,1436S713.7,2770,1479,2770s1385.7-597.25,1385.7-1334
		S2244.3,102,1479,102z"/>
	<path class="st7" d="M1322.72,1884.65c-1.48-15.36-6.88-29.23-16.21-41.59c-2.25-2.98-10.39-12.25-24.4-27.81
		c-4.77-5.1-9.09-10.23-12.95-15.35c-17.35-23.02-39.3-62.78-65.83-119.31c-44.15-95.11-91.06-214.89-140.7-359.31
		c-18.14-52.68-45.16-143.04-81.06-271.05c-19.74-71.25-30.84-110.94-33.28-119.05c-11.25-39.89-22.34-67.09-33.27-81.59
		c-7.39-9.8-15.88-16.19-25.46-19.16c-11.46-4.24-21.22-3.48-29.25,2.3c-14,10.06-19.14,36.12-15.45,78.15
		c5.95,70.01,17,154.09,33.15,252.25c27.94,169.22,51.76,297.04,71.46,383.45c22.99,101.15,37.27,165.15,42.84,192.03
		c-41.73-70.57-84.98-162.07-129.78-274.48c-48.34-125.63-86.14-243.07-113.4-352.32c-7.37-29.26-14.72-51.06-22.08-65.45v33.19
		H715.6v114.06h4.27v21.39c83.62,289.68,165.37,487.52,245.23,593.47c9.32,12.37,19.31,21.96,29.94,28.76
		c15.96,10.22,29.6,11.26,40.91,3.13c11.31-8.13,17.28-24.58,17.89-49.34c0.59-25.4-6.48-67.97-21.22-127.72
		c-68.79-273.95-108.84-493.63-120.14-659.04c125.88,454.44,234.29,741.98,325.23,862.63c14.46,19.19,27.95,32.51,40.44,39.95
		c15.96,10.22,28.11,12.33,36.45,6.34C1321.75,1908.02,1324.45,1898.51,1322.72,1884.65z"/>
	<path class="st8" d="M1689.72,573.36c-0.08-2.16-0.07-4.32,0.1-6.49c-1.5-0.02-2.98-0.32-4.38-0.81
		C1686.79,568.32,1688.21,570.75,1689.72,573.36z"/>
	<path class="st7" d="M2480.12,1247.98c-9.15-7.27-21.97-13.13-38.47-17.57c-62.59-16.77-109.71-30.49-141.32-41.16
		c-116.64-42.38-206.25-74.85-268.83-97.4c-37.83-14.45-73.66-30.48-107.45-48.1c18.65-12.37,32.21-21.85,40.67-28.44
		c49.27-38.38,87.85-86.43,115.71-144.16c36.45-75.21,46.62-150.47,30.5-225.8c-17.66-80.59-60.12-147.64-127.38-201.12
		c-41.18-32.74-86.66-52.41-136.44-59c-52.27-6.82-99.72,6.38-142.38,39.61c-13.98,10.89-27.17,23.7-39.59,38.41
		c-12.43,14.73-24.07,31.37-34.95,49.92c-2.85-0.71-5.57-1.28-8.24-1.79c-0.04,0.18-0.13,0.36-0.19,0.54
		c3.73,3.91,3.34,10.38-2.72,13.01c0.36,1.4,0.34,2.85-0.09,4.22c0.84,1.88,0.98,3.98,0.26,5.91c-1.89,5.13-5.17,9.96-8.91,14.39
		c-1.45,1.72-3.53,2.8-5.82,3.33c-0.64,3.04-1.54,6.06-2.6,9.01c-1.56,9.37-3.03,18.74-7.36,27.68c-0.31,0.64-0.68,1.21-1.1,1.73
		c0.92,1.15,1.85,2.32,2.82,3.52c-8.31,19.44-14.93,40.8-19.86,64.09c-7.25,33.03,0.57,58.63,23.44,76.81
		c6.41,5.1,13.41,8.64,21.02,10.64c9.72,2.52,16.96,1.91,21.74-1.81c3.67-2.86,6.58-8.36,8.72-16.51c1.76-7.85,4.87-17.84,9.3-29.94
		c0.82,1.08,1.77,2.43,2.82,4c-0.8-6.9,0.94-13.73,6.82-19.44c0.6-0.58,1.26-1.09,1.96-1.54c0.11-1.69,0.29-3.37,0.62-5.04
		c1.99-10.12,8.55-17.41,19.28-22.76c0.85-7.55,1.7-15.14,4.37-22.11c0.87-4.28,1.78-8.56,2.67-12.84c0.21-1.02,0.59-1.92,1.07-2.73
		c-0.93-1.56-1.86-3.08-2.76-4.58c7.86-22.68,14.47-39.72,19.82-51.09c13.48-29.22,32.71-53.57,57.72-73.05
		c27.58-21.49,55.02-32.23,82.3-32.24c27.29-0.01,54.43,10.72,81.43,32.18c26.54,21.1,46.01,45.56,58.4,73.35
		c20.41,44.6,30.75,89.86,30.98,135.77c0.16,104.32-37.81,186.12-113.93,245.42c-6.99,5.45-17.92,13.25-32.81,23.4
		c-0.71-1.6-1.45-3.24-2.2-4.9c-9.65,8.42-21.71,15.09-34.28,20.54c-10.32,4.48-23.27,9.32-35.81,9.74
		c1.49,3.23,2.67,5.78,3.54,7.65c-12.66,2.67-21.57,6-26.72,10.01c-5.52,4.3-8.37,10.14-8.58,17.49
		c-0.41,14.73,7.17,28.28,22.72,40.64c10.98,8.73,29.57,19.47,55.77,32.18c1.36,2.9,2.72,5.77,4.08,8.63
		c0.22,0.15,0.46,0.29,0.67,0.45c4.77,3.65,10,6.79,15.55,9.5c13.8,4.01,28.15,6.7,42.09,10.56c4.57,1.27,9.06,2.7,13.54,4.15
		c0.27,0.03,0.55,0.07,0.82,0.1c2.33,0.28,4.21,1.01,5.68,2c8.8,2.85,17.64,5.55,26.99,7.05c-0.97-1.84-1.93-3.67-2.9-5.52
		c175.16,70.98,305.97,118.54,392.39,142.68c24.65,7.45,45.27,13.72,61.86,18.79c34.55,11.27,56.41,13.31,65.61,6.15
		c5.88-4.58,9.38-13.08,10.53-25.49C2493.01,1264.59,2488.82,1254.89,2480.12,1247.98z"/>
	<g>
		<path class="st7" d="M1399.05,2056.82c27.4,49.8,32.2,110.73,22.46,165.85c-5.47,32.6-16.95,63.71-30.2,94.03
			c-1.37,3.09-3.03,6.95-4.6,9.97c-23.04,47.94-55.6,91.23-101.09,120.31c0,0-19.81,9.1-19.81,9.1c3.16-0.9,6.3-2.17,8.95-3.53
			c3.6-1.75,6.73-4.09,8.73-5.89c0.21-0.22-0.16,0.08-1.08,0.93c0,0-7.26,6.66-7.26,6.66c-7.26,4-15.91,8.48-23.13,11.36
			c-7.4,3.01-13.55,5.08-20.44,7.34c-36.58,11.46-75.85,11.2-112.08,2.79c-56.79-14.25-105.82-47.85-145.07-90.15
			c-5.52-5.91-11.52-12.57-16.68-18.89c-46.05-55.56-84.14-117.61-114.44-183c-4.09-8.66-8.26-18.1-11.84-27.1
			c-6.01-14.59-14.56-36.3-20.54-50.97c-2.58-6.41-6.5-15.27-8.74-21.74c-11.33-31.39-24.38-63.37-34.03-95.38
			c-0.87-3.08-2.52-8.46-3.36-11.59c-0.51-1.98-1.53-5.3-1.98-7.36c-0.64-2.85-0.81-4.19-1.14-6.54c0,0-0.17-1.39-0.17-1.39
			c-0.16-1.5-0.21-1.99-0.02-1.68c0.17,0.3,0.62,1.2,1.16,1.92c0,0-1.74-3.48-1.74-3.48c-2.08-4.37-3.52-12.92-3.14-17.29
			c0,0,0.03-0.63,0.03-0.63s0.03-0.4,0.03-0.4s0.02-0.34,0.02-0.34s0.02-0.09,0.02-0.09c0-0.01,0.01-0.1,0.01-0.05
			c0,0,0.01,0.21,0.01,0.21s0.03,0.69,0.03,0.69c-0.02,1.47,0.78,5.78,1.55,7.4c-40.6-129.52-65.65-268.72-80.05-405.09
			c-1.07-10.35-1.89-18.84-2.9-28.47c0,0-0.19-4.34-0.19-4.34s-0.19-3.79-0.19-3.79c-0.15-2.53-0.3-5.08-0.48-7.64
			c-1.18-16.28-2.86-32.19-3.53-48.92c0,0,0.03-0.76,0.03-0.76s0.69-18.02,0.69-18.02c-2.5-24.16-2.58-77.87-0.92-110.96
			c1.51-37.56,3.91-74.91,4.71-112.28c5.74-29.64,10.66-59.6,17.09-89.34c5.53-26.01,12.77-52.48,22.44-77.42
			c0,0,4.48-10.81,4.48-10.81s29.66,12,29.66,12c-3.29,9.02-7.23,21.2-9.75,30.43c-12.65,46-18.16,93.46-26.32,140.57
			c0,0,0.31-3.16,0.31-3.16c-0.1,18.8-0.6,37.49-1.31,56.06c-2.18,55.52-5.03,111.08-0.74,166.35c0,0-0.62,18.02-0.62,18.02
			c0.5,10.31,3.13,37.02,4.32,53.38c0.13,2.06,0.36,5.7,0.45,7.71c0.66,5.94,2.03,17.38,2.67,22.9
			c15.95,131.65,46.59,262.08,98.12,384.4c1.5,3.82,2.98,6.69,4.13,10.83c1.21,4.39,1.43,8.09,1.43,12.08c0,0,0,0.41,0,0.41
			c0,0.09,0,0.1,0,0.11c0,0,0,0.05,0,0.05s0.01,0.09,0.01,0.09c0,0.03,0,0.02,0.01-0.03c0,0,0.01-0.1,0.01-0.1
			c0.05-0.43,0.06-2.42-0.29-4.41c-0.34-2.05-0.87-3.79-1.43-5.14c0,0-1.74-3.48-1.74-3.48c2.36,3.89,4.21,8.19,5.42,11.99
			c1.6,4.95,1.88,7.36,2.77,10.88c0.03,0.19,0.41,1.42,0.37,0.97c-0.02-0.15-0.06-0.3-0.09-0.44c0-0.01-0.04-0.13-0.01-0.05
			c0,0,0.05,0.13,0.05,0.13s0.11,0.27,0.11,0.27s0.43,1.06,0.43,1.06c13.63,34.62,32.79,68.51,49.65,101.92
			c12.81,22.36,26.89,48.27,39.74,70.59c21.33,34.96,45.34,68.8,71.71,100.06c15.25,18.28,31.63,35.74,48.46,52.58
			c25.88,25.85,55.76,49.79,90.56,61.33c5.17,1.6,10.54,3.2,15.85,4.18c0,0,1.53,0.34,1.53,0.34c0.51,0.12,1.05,0.26,1.39,0.25
			c0,0,1.15,0.11,1.15,0.11c13.46,1.65,27.74,1.37,40.35-3.66c4.44-1.67,10.74-4.44,12.04-5.49c0,0-14.25,10.41-14.25,10.41
			c10.52-10.84,25.75-20.68,41.32-24.94c0,0-19.81,9.09-19.81,9.09s2.96-2.2,2.96-2.2c2.83-2.05,5.79-4.59,8.44-6.88
			c18.26-16.44,30.78-38.07,41.41-60.37c9.9-21.86,17.69-44.67,27.43-66.8c8.48-19.67,17.74-38.75,27.54-57.87
			c10.87-20.91,22.21-41.04,35.46-60.88c4.82-7,9.63-14.11,15.63-21.27C1367.14,2054.45,1399.05,2056.82,1399.05,2056.82
			L1399.05,2056.82z"/>
	</g>
	<g>
		<path class="st7" d="M1159.55,865.76c-7.65-26.05-8.68-52.06-6.41-78.64c3.87-41.52,17.79-81.96,39.81-117.36
			c11.71-19.26,26.48-36.73,42.1-52.93c27.4-28.09,59.25-51.78,94.9-68.57c63.49-29.63,134.07-34.45,201.15-14.82
			c52.98,15.39,100.92,44.7,142.06,80.94c171,154.04,243.15,418.29,259.59,640.89c14.03,197.22-13.57,477.67-176.85,610.56
			c-18.11,14.25-37.96,26.62-59.23,35.64c-23.95,10.4-49.84,16.51-75.8,18.21c0,0-2.77-31.88-2.77-31.88
			c12.38-1.5,24.58-4.03,36.48-7.64c35.94-10.86,68.22-31.98,94.84-58.27c80.2-80.53,117.84-198.5,133.87-309.1
			c34.39-254.39-45.18-557.36-223.18-745.78c-44.91-46.07-99.82-88.9-163.38-103.33c-14.23-3.08-28.26-4.5-42.65-4.09
			c-17.43,0.68-34.62,4.09-50.83,10.43c-12.32,4.87-23.76,10.97-34.81,18.59c-3.91,2.56-8.22,5.95-11.91,8.74
			c-1.35,1.12-5.51,4.62-6.96,5.81c-4.58,4.11-9.17,8.33-13.54,12.69c-5.81,5.91-11.79,12.68-17.14,18.99
			c-24.11,28.11-54.53,65.03-79.47,91.97c-15.67,16.81-31.12,33.27-49.16,47.98C1190.26,874.77,1159.55,865.76,1159.55,865.76
			L1159.55,865.76z"/>
	</g>
	<g>
		<g>
			<path class="st8" d="M1700.95,503.84c-2.92,0.35-4.98,2.11-6.36,4.65c-1.76,3.25-2.99,6.88-4.43,10.29
				c-3.18,7.52-6.36,15.04-9.54,22.56c0.86,0,1.73,0,2.59,0c-0.42-0.79-0.83-1.57-1.25-2.36c-0.91-1.71-3.5-0.19-2.59,1.51
				c0.42,0.79,0.83,1.57,1.25,2.36c0.48,0.91,2.15,1.05,2.59,0c2.92-6.91,5.84-13.81,8.76-20.72c1.43-3.38,2.85-6.75,4.28-10.13
				c0.9-2.11,2.09-4.86,4.69-5.17C1702.84,506.62,1702.87,503.62,1700.95,503.84L1700.95,503.84z"/>
		</g>
	</g>
	<path class="st7" d="M749,1112c-3.14-15.84-5.73-29.31-7.89-40.78c0,0-0.02-0.11-0.02-0.11c-4.38-23.31-6.57-34.97-6.09-35.11
		c1.09-0.31,15.82,20.85,10,42c-5.46,19.84-27.67,34.75-55,35"/>
</g>
</svg>
