<?xml version="1.0" encoding="UTF-8"?>
<svg id="Calque_1" data-name="Calque 1" xmlns="http://www.w3.org/2000/svg" viewBox="0 0 2957.17 2002">
  <defs>
    <style>
      .cls-1 {
        fill: #5ceb70;
      }
    </style>
  </defs>
  <g>
    <path class="cls-1" d="m312.13,1893.38c0,4.11-1.72,6.16-5.17,6.16-2.48,0-6.24-.25-11.27-.74-5.03-.49-8.79-.74-11.27-.74s-6.27.25-11.37.74c-5.1.49-8.89.74-11.37.74-3.45,0-5.17-2.71-5.17-8.13,0-20.85.55-52.13,1.65-93.84,1.1-41.71,1.65-72.99,1.65-93.84,0-3.12-.55-4.68-1.65-4.68-1.24,0-2.21.91-2.89,2.71-7.03,17.9-23.64,65.68-49.82,143.35-4.27,14.94-10.41,33.58-18.4,55.91-.97,2.13-5.93,3.2-14.88,3.2-12.96,0-20.12-1.4-21.5-4.19-4.69-13.3-11.37-31.93-20.05-55.91-11.44-32.51-29.01-80.95-52.71-145.32-.41-1.15-1.31-2.3-2.69-3.45-1.1.99-1.65,2.79-1.65,5.42,0,21.18.31,52.96.93,95.32.62,42.37.93,74.14.93,95.32,0,5.42-1.72,8.13-5.17,8.13-2.34,0-5.93-.25-10.75-.74-4.83-.49-8.41-.74-10.75-.74-2.48,0-6.17.25-11.06.74-4.89.49-8.58.74-11.06.74-3.45,0-5.17-1.56-5.17-4.68,0-18.23.72-45.52,2.17-81.9,1.45-36.37,2.17-63.67,2.17-81.9s-.72-47.25-2.17-85.1c-1.45-37.85-2.17-66.21-2.17-85.1,0-3.12,1.58-4.93,4.75-5.42,18.74-2.96,32.87-4.43,42.38-4.43,1.38,0,3.31,3.37,5.79,10.1,33.35,87.36,62.01,165.36,85.99,233.99,5.65,16.09,9.02,24.14,10.13,24.14,1.38,0,4.34-6.57,8.89-19.71,18.74-53.2,44.72-132.18,77.93-236.95,2.07-6.4,4.34-9.61,6.82-9.61,4.68,0,11.75.33,21.19.99,9.44.66,16.5.99,21.19.99,3.44,0,5.17,1.97,5.17,5.91,0,18.88-.52,47.25-1.55,85.1-1.03,37.85-1.55,66.22-1.55,85.1s.58,45.16,1.76,81.28c1.17,36.13,1.76,63.14,1.76,81.04Z"/>
    <path class="cls-1" d="m629.01,1726.63c0,48.77-13.09,90.73-39.27,125.86-27.29,36.45-61.19,54.68-101.7,54.68s-74.55-18.14-101.7-54.43c-26.18-34.98-39.27-77.01-39.27-126.11s13.23-90.56,39.69-125.86c27.29-36.61,61.05-54.93,101.29-54.93s74.21,18.31,101.49,54.93c26.32,35.14,39.48,77.09,39.48,125.86Zm-49.82-.74c0-32.18-8.41-60.18-25.22-83.99-17.64-25.29-39.76-37.93-66.35-37.93s-48.23,12.81-65.73,38.42c-16.54,23.98-24.81,52.06-24.81,84.24s8.27,60.02,24.81,83.99c17.5,25.62,39.41,38.42,65.73,38.42s48.92-12.81,66.56-38.42c16.67-23.97,25.01-52.22,25.01-84.73Z"/>
    <path class="cls-1" d="m922.95,1559.39c0,18.88-.55,47.38-1.65,85.47-1.1,38.1-1.65,66.67-1.65,85.71,0,17.9.14,44.71.41,80.42.27,35.71.41,62.52.41,80.42,0,5.42-1.72,8.13-5.17,8.13-2.07,0-5.17-.25-9.3-.74-4.13-.49-7.23-.74-9.3-.74-2.21,0-5.58.25-10.13.74-4.55.49-7.93.74-10.13.74-2.48,0-5.45-2.71-8.89-8.13-29.77-47.78-74.9-119.05-135.39-213.79-9.37-14.45-14.81-22.49-16.33-24.14-1.38,0-2.07,3.37-2.07,10.1,0,25.29.34,63.26,1.03,113.92.69,50.66,1.03,88.63,1.03,113.92,0,5.42-1.38,8.13-4.13,8.13-2.34,0-5.93-.25-10.75-.74-4.83-.49-8.41-.74-10.75-.74-2.48,0-6.17.25-11.06.74-4.89.49-8.58.74-11.06.74-3.45,0-5.17-1.64-5.17-4.93,0-18.06.72-45.28,2.17-81.65,1.45-36.37,2.17-63.67,2.17-81.9,0-19.87-.62-55.67-1.86-107.39-.28-13.46-.97-33.66-2.07-60.59l-.21-3.2c-.14-2.46,1.52-3.78,4.96-3.94,8.96-.16,15.98-.49,21.08-.99,1.93-.16,5.58-.82,10.96-1.97,4.55-.99,8.13-1.48,10.75-1.48,1.24,0,3.38,2.38,6.41,7.14,31.69,51.89,80.2,129.06,145.52,231.53,2.89,4.27,5.58,7.97,8.06,11.08.96-6.9,1.45-22.66,1.45-47.29,0-21.34-.66-53.36-1.96-96.06-1.31-42.69-1.96-74.63-1.96-95.81,0-5.42,1.38-8.13,4.13-8.13,2.48,0,6.23.25,11.27.74,5.03.49,8.79.74,11.27.74,2.62,0,6.54-.25,11.78-.74,5.24-.49,9.16-.74,11.78-.74,2.89,0,4.34,1.81,4.34,5.42Z"/>
    <path class="cls-1" d="m1162.53,1850.03c0,2.63-.55,6.4-1.65,11.33-1.24,6.24-2,10.02-2.27,11.33-.41,5.91-1.38,14.53-2.89,25.86-.69,2.96-2.48,4.43-5.37,4.43-1.38,0-4-.33-7.85-.99-16.95-2.96-43.2-4.43-78.76-4.43-10.06,0-25.22.33-45.48.99-20.26.66-35.42.99-45.48.99-4.55,0-6.82-2.38-6.82-7.14,0-18.39.86-46.02,2.58-82.88,1.72-36.86,2.58-64.49,2.58-82.88s-.83-53.61-2.48-104.68c-.28-13.13-1.03-32.76-2.27-58.87l-.21-3.45c-.14-3.78,1.65-5.67,5.37-5.67,9.64,0,24.11.33,43.41.99,19.29.66,33.76.99,43.41.99s23.05-.33,41.44-.99c18.4-.65,32.21-.99,41.44-.99,6.48,0,9.99,2.38,10.54,7.14,2.89,21.67,4.34,35.14,4.34,40.39,0,3.78-1.52,5.67-4.55,5.67-11.71,0-29.46-.78-53.23-2.34-23.77-1.56-41.65-2.34-53.64-2.34-11.3,0-18.43,1.81-21.39,5.42-2.96,3.61-4.44,12.56-4.44,26.85v36.7c0,10.02.21,15.85.62,17.49,1.24,5.09,4.82,7.64,10.75,7.64,1.65,0,4-.08,7.03-.25h7.03c27.01,0,51.26-.57,72.76-1.72,8.4-.33,18.33-1.15,29.77-2.46,2.89-.33,4.34,1.15,4.34,4.43,0,5.26-.52,13.3-1.55,24.14-1.03,10.84-1.55,18.96-1.55,24.38,0,2.96-2.07,4.43-6.2,4.43-1.65,0-7.79-.57-18.4-1.72-7.72-.99-25.08-1.48-52.09-1.48-22.74,0-37.14.33-43.2.99-5.51.49-8.68,3.94-9.51,10.34.14-1.15.21,5.17.21,18.97v36.45c0,17.08,2.2,27.75,6.61,32.02,3.44,3.45,12.06,5.17,25.84,5.17l22.74-.25c9.64,0,36.72-1.97,81.24-5.91l3.1-.25c2.75-.33,4.13,1.72,4.13,6.16Z"/>
    <path class="cls-1" d="m1415.12,1646.82c0,9.36-12.27,34.16-36.79,74.38-16.26,25.12-32.45,50.25-48.58,75.37-4,6.24-5.99,12.65-5.99,19.21,0,8.87.38,22.13,1.14,39.78.76,17.65,1.14,30.83,1.14,39.53,0,2.96-1.72,4.43-5.17,4.43h-49.2c-2.76,0-4.13-2.38-4.13-7.14,0-8.38.48-21.1,1.45-38.18.96-17.08,1.45-29.88,1.45-38.42,0-7.39-1.72-13.96-5.17-19.71-9.92-15.27-24.74-38.26-44.44-68.97-16.81-27.42-28.94-48.28-36.38-62.56-2.48-4.93-3.72-9.69-3.72-14.29-.28-20.69-.41-50.57-.41-89.66,0-4.43,1.65-6.65,4.96-6.65,2.34,0,5.82.25,10.44.74,4.62.49,8.09.74,10.44.74,2.75,0,6.89-.25,12.4-.74,5.51-.49,9.72-.74,12.61-.74,2.48,0,3.72,1.32,3.72,3.94,0,9.2-.41,22.99-1.24,41.38-.83,18.39-1.24,32.19-1.24,41.38,0,9.85,21.84,44.5,65.53,103.94,10.34-13.96,22.19-31.28,35.55-51.97,18.6-28.57,27.91-45.73,27.91-51.48,0-8.87-.55-22.29-1.65-40.27-1.1-17.98-1.65-31.4-1.65-40.27,0-4.43,1.58-6.65,4.75-6.65,2.48,0,6.27.25,11.37.74,5.1.49,8.89.74,11.37.74,2.62,0,6.58-.25,11.89-.74,5.3-.49,9.27-.74,11.89-.74,3.31,0,4.96,2.71,4.96,8.13,0,9.36.14,23.48.41,42.37.27,18.88.41,33,.41,42.36Z"/>
    <path class="cls-1" d="m1772.31,1897.56c0,1.32-1.1,1.97-3.31,1.97-2.62,0-6.61-.25-11.99-.74-5.37-.49-9.37-.74-11.99-.74-2.89,0-7.2.25-12.92.74-5.72.49-10.03.74-12.92.74-3.17,0-5.58-2.05-7.24-6.16-4.41-11.17-16.95-45.73-37.62-103.7-2.07-5.91-7.1-9.52-15.09-10.84-1.79-.16-8.06-.25-18.81-.25-19.02,0-30.32.33-33.9.99-2.89.49-4.34,4.68-4.34,12.56,0,11.5.45,28.69,1.34,51.6.89,22.91,1.34,40.02,1.34,51.35,0,3.45-1.38,5.17-4.13,5.17s-6.92-.37-12.51-1.11c-5.58-.74-9.82-1.11-12.71-1.11-2.34,0-5.93.25-10.75.74-4.83.49-8.41.74-10.75.74-3.45,0-5.17-1.89-5.17-5.67,0-18.23.72-45.61,2.17-82.14,1.45-36.53,2.17-63.92,2.17-82.14,0-51.89-1.59-107.22-4.75-166.01l-.21-3.94c-.14-3.28,2.75-4.93,8.68-4.93,11.85,0,29.59-.37,53.23-1.11,23.63-.74,41.31-1.11,53.02-1.11,30.59,0,55.12,8.71,73.59,26.11,20.39,19.21,30.59,46.47,30.59,81.77,0,24.3-2.76,43.43-8.27,57.39-5.79,14.78-16.54,28.82-32.25,42.12-2.62,2.14-3.93,4.19-3.93,6.16,0,2.3,8.23,24.14,24.7,65.52,16.47,41.38,24.7,63.39,24.7,66.01Zm-56.64-223.4c0-29.72-7.17-49.59-21.5-59.61-10.61-7.39-29.7-11.08-57.26-11.08-22.33,0-33.69,2.14-34.11,6.4-.97,8.87-1.45,32.6-1.45,71.18v47.04c.41.33,1.31.66,2.69.99,2.48.33,6.54.74,12.2,1.23,13.09.82,27.21,1.23,42.38,1.23,38.03,0,57.05-19.13,57.05-57.39Z"/>
    <path class="cls-1" d="m2073.49,1726.63c0,48.77-13.09,90.73-39.27,125.86-27.29,36.45-61.19,54.68-101.7,54.68s-74.55-18.14-101.7-54.43c-26.18-34.98-39.27-77.01-39.27-126.11s13.23-90.56,39.69-125.86c27.29-36.61,61.05-54.93,101.29-54.93s74.21,18.31,101.49,54.93c26.32,35.14,39.48,77.09,39.48,125.86Zm-49.82-.74c0-32.18-8.41-60.18-25.22-83.99-17.64-25.29-39.76-37.93-66.35-37.93s-48.23,12.81-65.73,38.42c-16.54,23.98-24.8,52.06-24.8,84.24s8.27,60.02,24.8,83.99c17.5,25.62,39.41,38.42,65.73,38.42s48.92-12.81,66.56-38.42c16.67-23.97,25.01-52.22,25.01-84.73Z"/>
    <path class="cls-1" d="m2344.28,1559.39c0,19.05-.66,47.58-1.96,85.59-1.31,38.02-1.96,66.54-1.96,85.59,0,6.24.07,15.56.21,27.96.14,12.4.21,21.64.21,27.71,0,34.32-2.69,58.13-8.06,71.43-8.27,20.36-24.32,34.16-48.16,41.38-14.61,4.43-35.21,6.65-61.81,6.65-48.23,0-79.86-9.52-94.88-28.57-11.58-14.78-17.36-44.33-17.36-88.67,0-5.42.07-14.57.21-27.46.14-12.89.21-23.03.21-30.42,0-19.37-.69-55.09-2.07-107.14,0-13.46-.62-33.58-1.86-60.34-.14-1.97-.21-3.28-.21-3.94,0-3.45,1.79-5.17,5.37-5.17,5.65,0,13.3.08,22.94.25,11.16.17,18.74.25,22.74.25,3.17,0,4.75,1.48,4.75,4.43,0,24.96-.45,62.48-1.34,112.56-.9,50.08-1.34,87.6-1.34,112.56,0,28.24,5.3,47.38,15.92,57.39,9.09,8.87,25.84,13.3,50.23,13.3,22.19,0,37.96-3.61,47.34-10.84,11.85-9.03,17.78-25.94,17.78-50.74s-.35-64.9-1.03-116.87c-.69-51.97-1.03-90.93-1.03-116.87,0-2.62,2-4.27,5.99-4.93,2.89-.49,7.03-.49,12.4,0,6.34.66,9.37.99,9.1.99,2.48,0,6.23-.25,11.27-.74,5.03-.49,8.79-.74,11.27-.74,3.44,0,5.17,1.81,5.17,5.42Z"/>
    <path class="cls-1" d="m2646.9,1559.39c0,18.88-.55,47.38-1.65,85.47-1.1,38.1-1.65,66.67-1.65,85.71,0,17.9.13,44.71.41,80.42.27,35.71.41,62.52.41,80.42,0,5.42-1.72,8.13-5.17,8.13-2.07,0-5.17-.25-9.3-.74-4.13-.49-7.23-.74-9.3-.74-2.21,0-5.58.25-10.13.74-4.55.49-7.93.74-10.13.74-2.48,0-5.45-2.71-8.89-8.13-29.77-47.78-74.9-119.05-135.39-213.79-9.37-14.45-14.82-22.49-16.33-24.14-1.38,0-2.07,3.37-2.07,10.1,0,25.29.34,63.26,1.03,113.92.69,50.66,1.03,88.63,1.03,113.92,0,5.42-1.38,8.13-4.13,8.13-2.34,0-5.93-.25-10.75-.74-4.83-.49-8.41-.74-10.75-.74-2.48,0-6.17.25-11.06.74-4.89.49-8.58.74-11.06.74-3.45,0-5.17-1.64-5.17-4.93,0-18.06.72-45.28,2.17-81.65,1.45-36.37,2.17-63.67,2.17-81.9,0-19.87-.62-55.67-1.86-107.39-.28-13.46-.97-33.66-2.07-60.59l-.21-3.2c-.14-2.46,1.51-3.78,4.96-3.94,8.96-.16,15.98-.49,21.08-.99,1.93-.16,5.58-.82,10.96-1.97,4.55-.99,8.13-1.48,10.75-1.48,1.24,0,3.38,2.38,6.41,7.14,31.69,51.89,80.2,129.06,145.52,231.53,2.89,4.27,5.58,7.97,8.06,11.08.96-6.9,1.45-22.66,1.45-47.29,0-21.34-.66-53.36-1.96-96.06-1.31-42.69-1.96-74.63-1.96-95.81,0-5.42,1.38-8.13,4.13-8.13,2.48,0,6.23.25,11.27.74,5.03.49,8.79.74,11.27.74,2.62,0,6.54-.25,11.78-.74,5.24-.49,9.16-.74,11.78-.74,2.89,0,4.34,1.81,4.34,5.42Z"/>
    <path class="cls-1" d="m2945.18,1724.9c0,46.14-11.03,86.05-33.07,119.71-23.98,36.62-54.71,54.93-92.19,54.93-7.17,0-17.95-.33-32.35-.99-14.4-.65-25.19-.99-32.35-.99-6.48,0-16.23.33-29.25.99-13.02.66-22.77.99-29.25.99-3.45,0-5.17-2.05-5.17-6.16,0-17.9.58-44.91,1.76-81.04,1.17-36.12,1.76-63.22,1.76-81.28,0-19.05-.55-47.7-1.65-85.96-1.1-38.26-1.65-66.91-1.65-85.96,0-3.45,1.79-5.17,5.37-5.17,5.1,0,12.71.08,22.84.25,10.13.17,17.74.25,22.84.25,4.68,0,11.85-.08,21.5-.25,9.64-.16,16.95-.25,21.91-.25,47.82,0,83.44,10.76,106.87,32.27,16.81,15.44,29.83,36.21,39.07,62.32,8.68,24.3,13.02,49.75,13.02,76.35Zm-50.64,0c0-35.47-8.47-64.37-25.42-86.7-17.64-23.15-41.21-34.73-70.69-34.73-24.39,0-34.25-.16-29.56-.49-16.12.99-24.18,4.52-24.18,10.59,0,12.65-.24,31.57-.72,56.77-.48,25.21-.72,44.13-.72,56.77s.24,31.2.72,56.16c.48,24.96.72,43.68.72,56.16,0,6.24,8.27,9.85,24.8,10.84-2.21-.16,7.86-.25,30.18-.25,15.85,0,28.46-1.97,37.83-5.91,11.58-4.93,21.98-14.04,31.21-27.34,17.22-24.96,25.84-55.58,25.84-91.87Z"/>
  </g>
  <g>
    <path class="cls-1" d="m1637.54,250.61c1.87,2.27,3.95,4.94,11.66,16.03,12.53,18.04,18.8,27.06,23.31,34.97,4.11,7.21,9.46,17.48,14.57,30.6,4.9,8.22,10.11,18.45,14.57,30.6,3.47,9.46,5.81,18.24,7.42,25.99,4.88,15.51,9.54,32.2,13.75,49.95,31.05-30.58,46.55-70.53,46.49-119.88,0-.02,0-.03,0-.05-.34-9.09-1.34-19.31-3.54-30.32-5.3-26.65-15.43-47.62-24.22-62.2-.08-.1-.16-.21-.24-.32-5.29-6.98-11.59-13.46-18.95-19.43-.61-.49-1.22-.96-1.82-1.43-9.36-6.92-18.38-11.02-25.06-13.47-.03,0-.06-.02-.09-.02-7.51-1.16-22.19-2.39-38.91,3.63-4.66,1.68-8.87,3.71-12.69,5.93-2.47,1.64-4.95,3.43-7.43,5.4-7.95,6.33-14.77,13.63-20.5,21.88-.06.09-.13.21-.19.3,5.62,4.62,13.61,11.82,21.86,21.86Z"/>
    <path class="cls-1" d="m1480.91,0c-401.95,0-727.8,320.65-727.8,716.2s325.85,716.2,727.8,716.2,727.8-320.65,727.8-716.2S1882.86,0,1480.91,0Zm24.04,1187.5c-6.24,23.84-16.24,41.94-24.04,53.74-6.66,13.49-19.21,34.59-41.53,54.08-28.07,24.53-57.27,34.02-72.85,37.88-14.82,3.81-41.03,8.47-72.85,2.91-38.16-6.67-64.52-24.57-77.05-34.39-13.92-9.59-32.17-24.31-49.72-45.75-18.67-22.82-29.81-45.01-36.43-61.2-6.29-15.37-19.16-42.09-32.06-85.97-9.13-31.06-19.41-72.92-26.23-123.85-9.21-43.24-17.27-89.95-23.31-139.88-11.38-94.02-13.22-179.89-10.2-254.99.99-13.27,3.62-30.45,10.2-49.54,4.81-13.96,10.6-25.65,16.03-34.97,5.08-12.43,18.83-18.61,30.6-14.57,10.44,3.58,17.32,14.51,16.03,26.23-2.51,2.19-9,8.44-11.66,18.94-2.98,11.75.76,21.27,2.04,24.19,8.5,37.11,18.18,66.33,25.64,86.55,7.21,19.53,10.12,24.64,30.6,77.22,8.28,21.26,12.42,31.9,17.48,45.17,14.34,37.59,17.89,48.25,26.23,65.57,8.33,17.29,16.4,30.76,21.86,39.34-7.06-36.11-13.12-64.6-17.48-84.51-2.85-13.01-6-27-10.2-48.08-.76-3.82-3.55-17.89-8.74-46.63-5.3-29.31-9.06-51.53-10.2-58.28-8.62-50.94-20-101.55-24.77-152.99-2.93-31.66-3.86-57.86-4.17-75.49-.23-9.51,6.64-17.75,15.83-19.22,8.81-1.41,17.59,3.76,20.7,12.33,5.07,11.62,12.48,29.48,20.1,51.78,12.81,37.52,12.52,47.52,24.77,90.34,11.55,40.39,15.2,43.34,33.51,101.99,8.49,27.2,14.89,49.57,18.94,64.11,9.56,30.44,21.88,63.83,37.88,99.08,22.45,49.45,47.12,91.46,70.41,126.07,1.95,2.3,8.49,10.57,8.27,22.55-.13,6.92-2.47,12.22-4.02,15.09-6.38-1.13-12.76-2.27-19.14-3.4-8.45-7.96-17.51-17.61-26.38-29.17-17.71-23.09-28.49-45.71-35.17-63.52-29.68-73.2-58.62-151.63-85.76-235.18-16.22-49.92-30.81-98.65-43.97-146.05,4.29,27.63,11.84,76.46,16.28,105.25,17.25,111.77,17.92,116.88,21.86,134.05,17.49,76.28,26.23,114.41,27.68,119.48,1.59,5.53,6.94,23.7,7.29,48.08.08,5.62-.12,10.24-.31,13.3.71,7.67-2.52,15.02-8.43,18.76-8.01,5.06-19.95,2.86-26.83-6.17-3.56-3.17-7.32-6.92-11.05-11.31-9.41-11.07-14.25-21.11-16.72-26.16-15.41-31.41-17.16-28.69-31.36-59.81-10.03-21.98-16.41-39.26-24.77-62.65-10.21-28.6-23.51-66.72-38.69-112.81-1.33,16.95-2.13,35.17-2.11,54.53.02,15.33.56,29.93,1.46,43.71,3.01,30.05,8.95,65.74,20.4,104.91,14.86,50.85,34.58,92.38,52.45,123.85,19.42,34.2,31.42,54.54,34.97,59.74,13.39,19.62,29.58,43.03,56.83,67.02,15.3,13.48,29.37,22.99,39.34,29.14,3.58-10.9,16.44-45.43,52.45-68.48,49.92-31.94,103.24-15.55,110.74-13.11,10.72,10.01,26.09,27.17,36.43,52.45,4.59,11.23,7.22,21.69,8.74,30.6.18,12.47-.87,29.15-5.83,48.08Zm502.85-542.94c-1.98,1.57-5.09,2.31-9.29,2.22-.82.08-1.65.14-2.53.15-5.59.08-9.7-1.32-14.28-3.11-2.61-.73-5.39-1.57-8.36-2.56-8.71-2.72-19.54-6.09-32.49-10.09-14.53-4.15-31.47-9.59-50.78-16.32-.03,0-.06-.02-.09-.03-13.26-4.19-24.66-8.57-48.38-17.65-5.25-1.99-10.64-4.05-16.15-6.18-29.51-11.28-58.15-22.77-85.92-34.39,1.22,14.57,2.39,32.83,2.91,53.91.15,5.76.5,22.1,0,45.17-.6,28.12-2.8,56.67-5.83,93.25-1.6,19.35-5.22,43.3-13.11,69.94-7.66,25.83-17.31,47.33-26.23,64.11-6.41,12.94-15.72,28.78-29.14,45.17-11.61,14.19-23.37,25.21-33.51,33.51-6.99,6.11-17.63,14.03-32.06,20.4-15.63,6.89-29.71,9.31-39.34,10.2-2.11-1.01-11.88-5.96-16.03-17.48-5.42-15.05,3.54-27.98,4.37-29.14,11.29-3.34,28.28-9.86,45.17-23.31,4.49-3.58,17.53-14.44,34.97-42.25,10.67-17,24.48-42.74,34.97-77.22,6.38-25.28,12.36-59.67,11.66-100.54-.6-34.87-5.87-64.59-11.66-87.48-7.26-25.43-16.71-53.37-29.14-82.99-9.86-23.53-20.27-44.91-30.6-64.11-18.21-22.07-34.94-39.56-48.08-52.45-33.16-32.57-50.63-42.95-67.02-49.54-7.23-2.91-13.39-4.74-17.48-5.83-13.11,9.63-26.23,19.28-39.34,28.91-8.03,5.61-19.73,12.53-34.97,17.72-14.95,5.1-28.21,6.79-37.88,7.29-3.05.89-7.65,2-13.38,2.51-3.28.31-10.96.76-20.14-1.05-15.04-2.96-25.25-10.27-29.14-13.11-20.18-14.75-27.52-35.92-30.6-45.17-9.92-29.87-3.39-56.18,0-67.02,2.4-9.98,6.7-22.31,14.57-34.97,3.06-4.92,8.71-13.2,17.48-21.86,6.99-6.91,11.04-9.19,21.86-17.48,6.35-4.88,15.49-12.18,26.23-21.86,9.4-6.57,22.56-14.34,39.34-20.4,13.83-5,26.36-7.49,36.43-8.74,18.05-3.03,48.51-5.74,84.51,2.91,30.16,7.26,52.8,19.74,67.02,29.14,5.15-7.03,14.28-17.8,28.46-27.36,11.53-8.17,23.71-13.58,36.53-16.25,3.62-.9,6.87-1.53,9.62-1.96,3.06-.11,6.62-.13,10.6.03,4.18.05,8.41.32,12.71.9,12.06,1.63,23.63,4.78,34.72,9.39.65.26,1.28.53,1.91.8.35.15.7.29,1.05.45,15.13,6.6,26.44,14.72,33.99,21.04,1.07.88,2.18,1.82,3.31,2.8,33.39,28.24,54.61,63.29,63.59,105.17,5.6,26.75,5.12,53.49-1.36,80.21-.04.19-.09.38-.14.58-.24.99-.47,1.98-.73,2.97-3.88,15.34-9.11,27.95-13.79,37.47-5.51,12.57-14.26,29.04-28.12,46.03-12.22,14.98-24.77,25.89-34.97,33.51-.02-.1-.04-.21-.06-.31-.1.08-.2.15-.3.23,1.25,7.97,2.35,15.79,3.28,23.39,19.13,8.35,38.82,16.6,59.05,24.7,26.61,9.83,59.71,22.1,99.33,36.8,1.12.38,2.23.77,3.35,1.15,22.7,7.71,45.06,14.85,67.01,21.48.06.02.12.03.17.05,4.9,1.11,10.25,2.56,15.93,4.45,1.67.46,3.34.92,5.05,1.39,8.67,2.38,15.4,5.53,20.21,9.43,2.88,2.34,4.81,5.27,5.81,8.79,1.27,3.2,1.97,7.05.93,11.23-.84,3.38-2.55,5.9-4.05,7.62-.5.62-1.03,1.19-1.62,1.66Z"/>
  </g>
</svg>