<svg width="20" height="20" viewBox="0 0 20 20" fill="none" xmlns="http://www.w3.org/2000/svg">
<path d="M5.556 6.36411C5.46694 7.31411 5.40444 8.99536 5.96538 9.71098C5.96538 9.71098 5.70132 7.86411 8.0685 5.54692C9.02163 4.61411 9.24194 3.34536 8.90913 2.3938C8.72007 1.85473 8.37475 1.40942 8.07475 1.09848C7.89975 0.91567 8.03413 0.614108 8.28882 0.625045C9.82944 0.693795 12.3263 1.12192 13.3873 3.78442C13.8529 4.95317 13.8873 6.16098 13.6654 7.38911C13.5248 8.17348 13.0248 9.91723 14.1654 10.1313C14.9794 10.2844 15.3732 9.63754 15.5498 9.17192C15.6232 8.97817 15.8779 8.92973 16.0154 9.08442C17.3904 10.6485 17.5076 12.4907 17.2232 14.0766C16.6732 17.1422 13.5685 19.3735 10.4841 19.3735C6.631 19.3735 3.56381 17.1688 2.7685 13.1782C2.44819 11.5672 2.61069 8.37973 5.09507 6.12973C5.27944 5.96098 5.581 6.11098 5.556 6.36411Z" fill="url(#paint0_radial_287_246)"/>
<path d="M11.8923 12.0969C10.472 10.2688 11.1079 8.18286 11.4564 7.35161C11.5032 7.24224 11.3782 7.13911 11.2798 7.2063C10.6689 7.62192 9.41729 8.60005 8.83448 9.97661C8.04542 11.8375 8.10167 12.7485 8.56886 13.861C8.85011 14.5313 8.52354 14.6735 8.35948 14.6985C8.20011 14.7235 8.05323 14.6172 7.93604 14.5063C7.59898 14.1826 7.35875 13.7714 7.24229 13.3188C7.21729 13.2219 7.09073 13.1954 7.03292 13.275C6.59542 13.8797 6.36886 14.85 6.35792 15.536C6.32354 17.6563 8.07511 19.375 10.1939 19.375C12.8642 19.375 14.8095 16.4219 13.2751 13.9532C12.8298 13.2344 12.411 12.7641 11.8923 12.0969Z" fill="url(#paint1_radial_287_246)"/>
<defs>
<radialGradient id="paint0_radial_287_246" cx="0" cy="0" r="1" gradientUnits="userSpaceOnUse" gradientTransform="translate(9.72097 19.4221) rotate(-179.751) scale(11.0293 18.0969)">
<stop offset="0.314" stop-color="#FF9800"/>
<stop offset="0.662" stop-color="#FF6D00"/>
<stop offset="0.972" stop-color="#F44336"/>
</radialGradient>
<radialGradient id="paint1_radial_287_246" cx="0" cy="0" r="1" gradientUnits="userSpaceOnUse" gradientTransform="translate(10.3407 8.44667) rotate(90.5787) scale(11.5401 8.68476)">
<stop offset="0.214" stop-color="#FFF176"/>
<stop offset="0.328" stop-color="#FFF27D"/>
<stop offset="0.487" stop-color="#FFF48F"/>
<stop offset="0.672" stop-color="#FFF7AD"/>
<stop offset="0.793" stop-color="#FFF9C4"/>
<stop offset="0.822" stop-color="#FFF8BD" stop-opacity="0.804"/>
<stop offset="0.863" stop-color="#FFF6AB" stop-opacity="0.529"/>
<stop offset="0.91" stop-color="#FFF38D" stop-opacity="0.209"/>
<stop offset="0.941" stop-color="#FFF176" stop-opacity="0"/>
</radialGradient>
</defs>
</svg>
