<svg width="13" height="13" viewBox="0 0 13 13" fill="none" xmlns="http://www.w3.org/2000/svg">
<path d="M5.74327 1.74761C5.99042 1.02699 7.00958 1.02699 7.25673 1.74761L7.85871 3.5028C8.10821 4.23026 8.79231 4.71885 9.56135 4.71885H11.3535C12.1389 4.71885 12.454 5.73252 11.8071 6.17783L10.4803 7.09107C9.81504 7.54895 9.53619 8.39384 9.79819 9.15774L10.3331 10.7175C10.5833 11.447 9.7581 12.0733 9.12282 11.636L7.52056 10.5332C6.90594 10.1101 6.09405 10.1101 5.47944 10.5332L3.87718 11.636C3.2419 12.0733 2.41667 11.447 2.66687 10.7175L3.20181 9.15774C3.46381 8.39384 3.18496 7.54895 2.51973 7.09107L1.19294 6.17783C0.545971 5.73252 0.861108 4.71885 1.64652 4.71885H3.43865C4.2077 4.71885 4.89179 4.23026 5.14129 3.5028L5.74327 1.74761Z" stroke="#676666"/>
</svg>
