<?xml version="1.0" encoding="UTF-8"?>
<svg id="Calque_1" data-name="Calque 1" xmlns="http://www.w3.org/2000/svg" viewBox="0 0 2941.81 1991.6">
  <defs>
    <style>
      .cls-1 {
        fill: #dcdcdc;
      }
    </style>
  </defs>
  <g>
    <path class="cls-1" d="m310.51,1883.55c0,4.08-1.72,6.13-5.14,6.13-2.47,0-6.2-.25-11.21-.74-5.01-.49-8.74-.73-11.21-.73s-6.24.24-11.31.73c-5.07.49-8.84.74-11.31.74-3.43,0-5.14-2.7-5.14-8.09,0-20.74.55-51.86,1.65-93.36,1.1-41.49,1.65-72.61,1.65-93.36,0-3.1-.55-4.66-1.65-4.66-1.23,0-2.19.9-2.88,2.7-6.99,17.81-23.51,65.34-49.56,142.61-4.25,14.87-10.35,33.41-18.3,55.62-.96,2.12-5.9,3.19-14.81,3.19-12.89,0-20.02-1.39-21.39-4.17-4.66-13.23-11.31-31.77-19.95-55.62-11.38-32.34-28.86-80.53-52.44-144.57-.41-1.14-1.3-2.29-2.67-3.43-1.1.98-1.65,2.78-1.65,5.39,0,21.07.31,52.68.93,94.83.62,42.15.93,73.75.93,94.83,0,5.39-1.72,8.09-5.14,8.09-2.33,0-5.9-.25-10.69-.74-4.8-.49-8.36-.73-10.69-.73-2.47,0-6.14.24-11,.73-4.87.49-8.53.74-11,.74-3.43,0-5.14-1.55-5.14-4.66,0-18.13.72-45.29,2.16-81.47,1.44-36.18,2.16-63.34,2.16-81.47s-.72-47-2.16-84.66c-1.44-37.65-2.16-65.87-2.16-84.66,0-3.1,1.57-4.9,4.73-5.39,18.64-2.94,32.7-4.41,42.15-4.41,1.37,0,3.29,3.35,5.76,10.05,33.17,86.9,61.69,164.5,85.54,232.78,5.62,16.01,8.98,24.01,10.08,24.01,1.37,0,4.32-6.53,8.84-19.6,18.64-52.93,44.48-131.5,77.52-235.72,2.06-6.37,4.32-9.56,6.79-9.56,4.66,0,11.69.33,21.08.98,9.39.66,16.42.98,21.08.98,3.43,0,5.14,1.96,5.14,5.88,0,18.79-.51,47.01-1.54,84.66-1.03,37.65-1.54,65.87-1.54,84.66s.58,44.92,1.75,80.86c1.16,35.94,1.75,62.81,1.75,80.61Z"/>
    <path class="cls-1" d="m625.75,1717.66c0,48.52-13.03,90.25-39.07,125.21-27.14,36.26-60.87,54.4-101.17,54.4s-74.17-18.05-101.17-54.15c-26.05-34.79-39.07-76.61-39.07-125.45s13.16-90.09,39.48-125.21c27.14-36.42,60.73-54.64,100.76-54.64s73.82,18.22,100.97,54.64c26.18,34.96,39.28,76.69,39.28,125.21Zm-49.56-.73c0-32.01-8.36-59.87-25.09-83.55-17.55-25.15-39.55-37.73-66.01-37.73s-47.98,12.74-65.39,38.22c-16.45,23.85-24.68,51.78-24.68,83.8s8.23,59.71,24.68,83.55c17.41,25.48,39.21,38.22,65.39,38.22s48.66-12.74,66.21-38.22c16.59-23.85,24.88-51.95,24.88-84.29Z"/>
    <path class="cls-1" d="m918.16,1551.29c0,18.79-.55,47.13-1.65,85.03-1.1,37.9-1.65,66.32-1.65,85.27,0,17.81.14,44.47.41,80,.27,35.53.41,62.2.41,80,0,5.39-1.72,8.09-5.14,8.09-2.06,0-5.14-.25-9.25-.74s-7.2-.73-9.25-.73c-2.19,0-5.55.24-10.08.73s-7.88.74-10.08.74c-2.47,0-5.42-2.7-8.84-8.09-29.61-47.54-74.51-118.43-134.69-212.68-9.32-14.37-14.74-22.38-16.25-24.01-1.37,0-2.06,3.35-2.06,10.05,0,25.16.34,62.93,1.03,113.33.68,50.4,1.03,88.17,1.03,113.33,0,5.39-1.37,8.09-4.11,8.09-2.33,0-5.9-.25-10.69-.74-4.8-.49-8.36-.73-10.69-.73-2.47,0-6.14.24-11,.73-4.87.49-8.53.74-11,.74-3.43,0-5.14-1.63-5.14-4.9,0-17.97.72-45.04,2.16-81.23,1.44-36.18,2.16-63.34,2.16-81.47,0-19.76-.62-55.38-1.85-106.83-.28-13.39-.96-33.48-2.06-60.28l-.21-3.19c-.14-2.45,1.51-3.76,4.94-3.92,8.91-.16,15.9-.49,20.97-.98,1.92-.16,5.55-.82,10.9-1.96,4.52-.98,8.09-1.47,10.69-1.47,1.23,0,3.36,2.37,6.37,7.11,31.53,51.62,79.79,128.39,144.77,230.33,2.88,4.25,5.55,7.92,8.02,11.03.96-6.86,1.44-22.54,1.44-47.05,0-21.23-.65-53.09-1.95-95.56-1.3-42.47-1.95-74.24-1.95-95.32,0-5.39,1.37-8.09,4.11-8.09,2.47,0,6.2.25,11.21.74,5,.49,8.74.74,11.21.74,2.6,0,6.51-.25,11.72-.74,5.21-.49,9.12-.74,11.72-.74,2.88,0,4.32,1.8,4.32,5.39Z"/>
    <path class="cls-1" d="m1156.49,1840.42c0,2.62-.55,6.37-1.65,11.27-1.23,6.21-1.99,9.97-2.26,11.27-.41,5.88-1.37,14.46-2.88,25.73-.69,2.94-2.47,4.41-5.35,4.41-1.37,0-3.98-.33-7.81-.98-16.86-2.94-42.98-4.41-78.35-4.41-10.01,0-25.09.33-45.24.98-20.15.66-35.23.98-45.24.98-4.52,0-6.79-2.37-6.79-7.11,0-18.29.85-45.78,2.57-82.45,1.71-36.67,2.57-64.16,2.57-82.45s-.82-53.33-2.47-104.14c-.28-13.07-1.03-32.59-2.26-58.56l-.21-3.43c-.14-3.76,1.65-5.64,5.35-5.64,9.59,0,23.99.33,43.18.98,19.19.65,33.59.98,43.18.98s22.93-.33,41.23-.98c18.3-.65,32.04-.98,41.23-.98,6.44,0,9.94,2.37,10.49,7.11,2.88,21.56,4.32,34.96,4.32,40.18,0,3.76-1.51,5.64-4.52,5.64-11.65,0-29.3-.77-52.95-2.33-23.65-1.55-41.44-2.33-53.36-2.33-11.24,0-18.34,1.8-21.28,5.39-2.95,3.6-4.42,12.5-4.42,26.71v36.51c0,9.97.21,15.77.62,17.4,1.23,5.07,4.8,7.6,10.69,7.6,1.65,0,3.97-.08,6.99-.25h6.99c26.87,0,51-.57,72.38-1.71,8.36-.33,18.23-1.14,29.61-2.45,2.88-.33,4.32,1.14,4.32,4.41,0,5.23-.51,13.23-1.54,24.01-1.03,10.78-1.54,18.87-1.54,24.26,0,2.94-2.06,4.41-6.17,4.41-1.65,0-7.75-.57-18.3-1.72-7.68-.98-24.95-1.47-51.82-1.47-22.62,0-36.95.33-42.98.98-5.48.49-8.64,3.92-9.46,10.29.13-1.14.21,5.15.21,18.87v36.26c0,16.99,2.19,27.61,6.58,31.85,3.43,3.43,11.99,5.15,25.7,5.15l22.62-.25c9.59,0,36.53-1.96,80.81-5.88l3.08-.25c2.74-.33,4.11,1.71,4.11,6.12Z"/>
    <path class="cls-1" d="m1407.77,1638.27c0,9.31-12.2,33.98-36.6,74-16.18,24.99-32.28,49.99-48.32,74.98-3.98,6.21-5.96,12.58-5.96,19.11,0,8.82.38,22.01,1.13,39.57.75,17.56,1.13,30.67,1.13,39.33,0,2.94-1.72,4.41-5.14,4.41h-48.94c-2.74,0-4.11-2.37-4.11-7.11,0-8.33.48-20.99,1.44-37.98.96-16.99,1.44-29.73,1.44-38.22,0-7.35-1.72-13.88-5.14-19.6-9.87-15.19-24.61-38.06-44.21-68.61-16.73-27.28-28.79-48.03-36.19-62.24-2.47-4.9-3.7-9.64-3.7-14.21-.28-20.58-.41-50.31-.41-89.19,0-4.41,1.65-6.62,4.94-6.62,2.33,0,5.79.25,10.38.74,4.59.49,8.05.74,10.38.74,2.74,0,6.85-.25,12.34-.74,5.48-.49,9.66-.74,12.54-.74,2.47,0,3.7,1.31,3.7,3.92,0,9.15-.41,22.87-1.23,41.17-.82,18.3-1.23,32.02-1.23,41.16,0,9.8,21.73,44.27,65.19,103.4,10.28-13.88,22.07-31.12,35.37-51.7,18.51-28.42,27.76-45.49,27.76-51.21,0-8.82-.55-22.17-1.65-40.06-1.1-17.89-1.65-31.24-1.65-40.06,0-4.41,1.57-6.62,4.73-6.62,2.47,0,6.24.25,11.31.74,5.07.49,8.84.74,11.31.74,2.6,0,6.54-.25,11.82-.74,5.28-.49,9.22-.74,11.82-.74,3.29,0,4.94,2.7,4.94,8.09,0,9.31.14,23.36.41,42.15.27,18.79.41,32.83.41,42.14Z"/>
    <path class="cls-1" d="m1763.11,1887.71c0,1.31-1.1,1.96-3.29,1.96-2.61,0-6.58-.25-11.93-.74s-9.32-.73-11.93-.73c-2.88,0-7.17.24-12.85.73-5.69.49-9.97.74-12.85.74-3.16,0-5.55-2.04-7.2-6.13-4.39-11.11-16.86-45.49-37.43-103.16-2.06-5.88-7.06-9.47-15.01-10.78-1.78-.16-8.02-.25-18.71-.25-18.92,0-30.16.33-33.72.98-2.88.49-4.32,4.66-4.32,12.5,0,11.44.44,28.55,1.34,51.33.89,22.79,1.34,39.82,1.34,51.09,0,3.43-1.37,5.15-4.11,5.15s-6.89-.37-12.44-1.1c-5.55-.74-9.77-1.1-12.65-1.1-2.33,0-5.9.24-10.69.73-4.8.49-8.36.74-10.69.74-3.43,0-5.14-1.88-5.14-5.64,0-18.13.72-45.37,2.16-81.72,1.44-36.34,2.16-63.58,2.16-81.72,0-51.62-1.58-106.67-4.73-165.15l-.21-3.92c-.14-3.27,2.74-4.9,8.64-4.9,11.79,0,29.44-.37,52.95-1.1,23.51-.74,41.09-1.1,52.75-1.1,30.43,0,54.83,8.66,73.21,25.97,20.29,19.11,30.43,46.23,30.43,81.35,0,24.18-2.74,43.21-8.23,57.09-5.76,14.7-16.45,28.67-32.08,41.9-2.61,2.12-3.91,4.17-3.91,6.13,0,2.29,8.19,24.01,24.57,65.18,16.38,41.17,24.57,63.06,24.57,65.67Zm-56.34-222.24c0-29.56-7.13-49.33-21.39-59.3-10.56-7.35-29.54-11.03-56.96-11.03-22.21,0-33.52,2.12-33.93,6.37-.96,8.82-1.44,32.43-1.44,70.81v46.8c.41.33,1.3.65,2.67.98,2.47.33,6.51.74,12.13,1.23,13.02.82,27.07,1.22,42.16,1.22,37.84,0,56.75-19.03,56.75-57.09Z"/>
    <path class="cls-1" d="m2062.72,1717.66c0,48.52-13.03,90.25-39.07,125.21-27.14,36.26-60.87,54.4-101.17,54.4s-74.17-18.05-101.17-54.15c-26.05-34.79-39.07-76.61-39.07-125.45s13.16-90.09,39.48-125.21c27.14-36.42,60.73-54.64,100.76-54.64s73.82,18.22,100.97,54.64c26.18,34.96,39.28,76.69,39.28,125.21Zm-49.56-.73c0-32.01-8.36-59.87-25.09-83.55-17.55-25.15-39.55-37.73-66.01-37.73s-47.98,12.74-65.39,38.22c-16.45,23.85-24.68,51.78-24.68,83.8s8.22,59.71,24.68,83.55c17.41,25.48,39.21,38.22,65.39,38.22s48.67-12.74,66.21-38.22c16.59-23.85,24.88-51.95,24.88-84.29Z"/>
    <path class="cls-1" d="m2332.1,1551.29c0,18.95-.65,47.33-1.95,85.15-1.3,37.82-1.95,66.2-1.95,85.15,0,6.21.07,15.48.21,27.81.13,12.34.21,21.52.21,27.57,0,34.14-2.67,57.83-8.02,71.06-8.22,20.26-24.2,33.98-47.91,41.16-14.53,4.41-35.03,6.62-61.49,6.62-47.98,0-79.45-9.47-94.39-28.42-11.52-14.7-17.27-44.1-17.27-88.21,0-5.39.07-14.5.21-27.32.14-12.82.21-22.91.21-30.26,0-19.27-.69-54.8-2.06-106.59,0-13.39-.62-33.4-1.85-60.03-.14-1.96-.21-3.27-.21-3.92,0-3.43,1.78-5.15,5.35-5.15,5.62,0,13.23.08,22.83.25,11.1.17,18.64.25,22.62.25,3.15,0,4.73,1.47,4.73,4.41,0,24.83-.45,62.16-1.34,111.98-.89,49.82-1.34,87.15-1.34,111.98,0,28.1,5.28,47.13,15.83,57.09,9.05,8.82,25.7,13.23,49.97,13.23,22.07,0,37.77-3.59,47.09-10.78,11.79-8.98,17.68-25.81,17.68-50.48s-.34-64.57-1.03-116.27c-.69-51.7-1.03-90.45-1.03-116.27,0-2.61,1.99-4.25,5.96-4.9,2.88-.49,6.99-.49,12.34,0,6.3.66,9.32.98,9.05.98,2.47,0,6.2-.25,11.21-.74,5-.49,8.74-.74,11.21-.74,3.42,0,5.14,1.8,5.14,5.39Z"/>
    <path class="cls-1" d="m2633.15,1551.29c0,18.79-.55,47.13-1.64,85.03-1.1,37.9-1.65,66.32-1.65,85.27,0,17.81.13,44.47.41,80,.27,35.53.41,62.2.41,80,0,5.39-1.72,8.09-5.14,8.09-2.06,0-5.14-.25-9.25-.74-4.11-.49-7.2-.73-9.25-.73-2.19,0-5.55.24-10.08.73-4.52.49-7.88.74-10.08.74-2.47,0-5.42-2.7-8.84-8.09-29.61-47.54-74.51-118.43-134.69-212.68-9.32-14.37-14.74-22.38-16.25-24.01-1.37,0-2.06,3.35-2.06,10.05,0,25.16.34,62.93,1.03,113.33.68,50.4,1.03,88.17,1.03,113.33,0,5.39-1.37,8.09-4.11,8.09-2.33,0-5.9-.25-10.69-.74-4.8-.49-8.36-.73-10.69-.73-2.47,0-6.14.24-11,.73-4.87.49-8.53.74-11,.74-3.43,0-5.14-1.63-5.14-4.9,0-17.97.72-45.04,2.16-81.23,1.44-36.18,2.16-63.34,2.16-81.47,0-19.76-.62-55.38-1.85-106.83-.28-13.39-.96-33.48-2.06-60.28l-.21-3.19c-.14-2.45,1.51-3.76,4.94-3.92,8.91-.16,15.9-.49,20.97-.98,1.92-.16,5.55-.82,10.9-1.96,4.52-.98,8.09-1.47,10.69-1.47,1.23,0,3.36,2.37,6.38,7.11,31.53,51.62,79.79,128.39,144.77,230.33,2.88,4.25,5.55,7.92,8.02,11.03.96-6.86,1.44-22.54,1.44-47.05,0-21.23-.65-53.09-1.95-95.56-1.3-42.47-1.95-74.24-1.95-95.32,0-5.39,1.37-8.09,4.11-8.09,2.47,0,6.2.25,11.21.74,5,.49,8.74.74,11.21.74,2.6,0,6.51-.25,11.72-.74,5.21-.49,9.12-.74,11.72-.74,2.88,0,4.32,1.8,4.32,5.39Z"/>
    <path class="cls-1" d="m2929.88,1715.95c0,45.9-10.97,85.6-32.9,119.08-23.85,36.43-54.43,54.64-91.71,54.64-7.13,0-17.86-.33-32.18-.98-14.33-.65-25.05-.98-32.18-.98-6.45,0-16.14.33-29.1.98-12.95.66-22.65.98-29.1.98-3.43,0-5.14-2.04-5.14-6.13,0-17.8.58-44.67,1.75-80.61,1.16-35.93,1.75-62.89,1.75-80.86,0-18.95-.55-47.45-1.64-85.51-1.1-38.06-1.65-66.56-1.65-85.52,0-3.43,1.78-5.15,5.35-5.15,5.07,0,12.65.08,22.72.25,10.08.17,17.65.25,22.72.25,4.66,0,11.79-.08,21.39-.25,9.59-.16,16.86-.25,21.8-.25,47.57,0,83,10.7,106.31,32.1,16.72,15.36,29.68,36.02,38.87,61.99,8.64,24.18,12.96,49.5,12.96,75.96Zm-50.38,0c0-35.28-8.43-64.03-25.29-86.25-17.55-23.03-40.99-34.55-70.33-34.55-24.26,0-34.07-.16-29.41-.49-16.04.98-24.06,4.5-24.06,10.54,0,12.58-.24,31.41-.72,56.48-.48,25.08-.72,43.9-.72,56.48s.24,31.04.72,55.87c.48,24.83.72,43.45.72,55.87,0,6.21,8.23,9.8,24.68,10.78-2.19-.16,7.81-.25,30.02-.25,15.76,0,28.31-1.96,37.63-5.88,11.52-4.9,21.86-13.97,31.05-27.2,17.13-24.83,25.7-55.29,25.7-91.4Z"/>
  </g>
  <g>
    <path class="cls-1" d="m1629.04,249.31c1.86,2.26,3.93,4.91,11.6,15.94,12.47,17.94,18.7,26.92,23.19,34.79,4.09,7.18,9.41,17.39,14.49,30.44,4.87,8.18,10.06,18.35,14.49,30.44,3.45,9.41,5.78,18.15,7.38,25.86,4.86,15.43,9.49,32.03,13.68,49.69,30.89-30.42,46.31-70.17,46.25-119.26,0-.02,0-.03,0-.05-.33-9.04-1.33-19.21-3.52-30.16-5.28-26.51-15.35-47.37-24.09-61.88-.08-.1-.16-.21-.24-.32-5.26-6.94-11.53-13.39-18.85-19.33-.6-.49-1.21-.96-1.81-1.43-9.31-6.89-18.29-10.97-24.93-13.4-.03,0-.06-.02-.09-.02-7.48-1.16-22.08-2.38-38.71,3.61-4.63,1.67-8.83,3.69-12.62,5.9-2.46,1.63-4.92,3.41-7.39,5.37-7.91,6.3-14.69,13.56-20.39,21.76-.06.09-.13.21-.19.3,5.6,4.59,13.54,11.76,21.74,21.74Z"/>
    <path class="cls-1" d="m1473.22,0c-399.87,0-724.02,318.99-724.02,712.48s324.16,712.48,724.02,712.48,724.02-318.99,724.02-712.48S1873.08,0,1473.22,0Zm23.92,1181.34c-6.21,23.72-16.15,41.72-23.92,53.46-6.62,13.42-19.11,34.41-41.31,53.8-27.93,24.4-56.98,33.84-72.47,37.69-14.74,3.79-40.82,8.43-72.47,2.9-37.97-6.63-64.18-24.44-76.65-34.21-13.85-9.54-32-24.18-49.46-45.51-18.58-22.7-29.65-44.78-36.24-60.88-6.26-15.29-19.06-41.87-31.89-85.52-9.08-30.9-19.31-72.54-26.09-123.21-9.16-43.01-17.18-89.49-23.19-139.15-11.32-93.53-13.15-178.95-10.15-253.66.99-13.2,3.6-30.29,10.15-49.28,4.79-13.89,10.55-25.52,15.94-34.79,5.05-12.37,18.73-18.51,30.44-14.49,10.38,3.56,17.23,14.43,15.94,26.09-2.5,2.18-8.95,8.4-11.6,18.84-2.96,11.69.76,21.16,2.03,24.06,8.46,36.92,18.09,65.99,25.51,86.1,7.17,19.43,10.07,24.51,30.44,76.82,8.24,21.15,12.36,31.73,17.39,44.93,14.27,37.39,17.79,48,26.09,65.23,8.29,17.2,16.32,30.6,21.74,39.14-7.02-35.92-13.05-64.27-17.39-84.07-2.84-12.94-5.97-26.86-10.15-47.83-.76-3.8-3.53-17.79-8.7-46.38-5.27-29.15-9.01-51.27-10.15-57.98-8.58-50.67-19.9-101.02-24.64-152.2-2.92-31.49-3.84-57.56-4.15-75.1-.23-9.46,6.6-17.66,15.75-19.12,8.77-1.4,17.5,3.74,20.59,12.27,5.05,11.56,12.42,29.33,19.99,51.51,12.75,37.32,12.46,47.28,24.64,89.87,11.49,40.18,15.12,43.12,33.34,101.46,8.45,27.06,14.81,49.31,18.84,63.78,9.51,30.28,21.76,63.5,37.69,98.57,22.34,49.19,46.88,90.99,70.05,125.42,1.94,2.29,8.45,10.52,8.23,22.43-.13,6.89-2.46,12.16-4,15.01-6.35-1.13-12.7-2.26-19.04-3.38-8.41-7.92-17.41-17.52-26.24-29.02-17.62-22.97-28.35-45.48-34.99-63.19-29.53-72.82-58.32-150.85-85.32-233.96-16.13-49.66-30.65-98.14-43.74-145.29,4.26,27.49,11.78,76.07,16.2,104.7,17.16,111.19,17.83,116.27,21.74,133.35,17.4,75.88,26.09,113.82,27.54,118.86,1.58,5.51,6.9,23.58,7.25,47.83.08,5.59-.12,10.19-.31,13.23.7,7.63-2.5,14.94-8.39,18.66-7.97,5.03-19.85,2.84-26.69-6.14-3.54-3.15-7.28-6.88-10.99-11.25-9.36-11.01-14.17-21-16.64-26.02-15.33-31.25-17.07-28.55-31.2-59.5-9.98-21.87-16.33-39.06-24.64-62.33-10.16-28.45-23.39-66.38-38.49-112.23-1.33,16.86-2.12,34.99-2.09,54.25.02,15.25.55,29.77,1.45,43.48,3,29.9,8.9,65.4,20.29,104.36,14.79,50.59,34.4,91.9,52.18,123.21,19.32,34.02,31.26,54.26,34.79,59.43,13.32,19.52,29.43,42.8,56.53,66.68,15.22,13.41,29.22,22.87,39.14,28.99,3.56-10.85,16.35-45.2,52.18-68.13,49.66-31.78,102.71-15.47,110.16-13.05,10.66,9.96,25.96,27.03,36.24,52.18,4.57,11.17,7.18,21.58,8.7,30.44.18,12.4-.87,29-5.8,47.83Zm500.24-540.12c-1.97,1.57-5.06,2.29-9.24,2.21-.81.08-1.65.14-2.52.15-5.57.08-9.65-1.32-14.21-3.1-2.6-.72-5.36-1.56-8.32-2.55-8.67-2.71-19.44-6.06-32.32-10.04-14.46-4.13-31.31-9.54-50.52-16.24-.03,0-.06-.02-.09-.03-13.19-4.17-24.54-8.53-48.13-17.56-5.23-1.98-10.59-4.03-16.06-6.15-29.36-11.22-57.85-22.65-85.47-34.21,1.22,14.49,2.38,32.66,2.9,53.63.14,5.73.49,21.99,0,44.93-.59,27.98-2.78,56.37-5.8,92.77-1.59,19.25-5.19,43.08-13.05,69.58-7.62,25.7-17.22,47.08-26.09,63.78-6.38,12.87-15.64,28.63-28.99,44.93-11.55,14.12-23.25,25.08-33.34,33.34-6.96,6.07-17.54,13.96-31.89,20.29-15.55,6.86-29.56,9.26-39.14,10.15-2.1-1-11.81-5.93-15.94-17.39-5.39-14.97,3.52-27.83,4.35-28.99,11.23-3.32,28.13-9.81,44.93-23.19,4.46-3.57,17.44-14.36,34.79-42.04,10.61-16.92,24.35-42.51,34.79-76.82,6.35-25.15,12.29-59.36,11.6-100.02-.59-34.69-5.84-64.26-11.6-87.03-7.22-25.29-16.63-53.09-28.99-82.56-9.81-23.41-20.16-44.67-30.44-63.78-18.12-21.96-34.76-39.35-47.83-52.18-32.99-32.4-50.37-42.73-66.68-49.28-7.19-2.9-13.32-4.71-17.39-5.8-13.05,9.58-26.09,19.18-39.14,28.76-7.99,5.58-19.63,12.47-34.79,17.63-14.87,5.07-28.06,6.75-37.69,7.25-3.03.88-7.61,1.99-13.31,2.49-3.26.3-10.9.75-20.03-1.04-14.96-2.94-25.12-10.22-28.99-13.05-20.08-14.67-27.38-35.73-30.44-44.93-9.87-29.71-3.38-55.89,0-66.68,2.39-9.93,6.67-22.19,14.49-34.79,3.04-4.9,8.67-13.13,17.39-21.74,6.96-6.87,10.99-9.15,21.74-17.39,6.32-4.86,15.41-12.12,26.09-21.74,9.35-6.54,22.44-14.26,39.14-20.29,13.76-4.97,26.22-7.45,36.24-8.7,17.96-3.01,48.25-5.71,84.07,2.9,30,7.22,52.53,19.64,66.68,28.99,5.12-7,14.21-17.71,28.31-27.22,11.47-8.13,23.59-13.51,36.34-16.17,3.6-.89,6.83-1.52,9.57-1.95,3.04-.11,6.59-.13,10.54.03,4.15.05,8.36.32,12.64.89,11.99,1.62,23.51,4.75,34.54,9.35.64.26,1.27.53,1.9.8.35.15.7.29,1.04.44,15.05,6.56,26.3,14.65,33.81,20.93,1.06.88,2.17,1.81,3.29,2.79,33.21,28.1,54.32,62.96,63.26,104.63,5.57,26.61,5.09,53.21-1.36,79.8-.04.19-.09.38-.14.57-.24.99-.46,1.97-.72,2.96-3.86,15.26-9.06,27.81-13.72,37.28-5.48,12.51-14.19,28.89-27.98,45.79-12.16,14.9-24.64,25.76-34.79,33.34-.02-.1-.04-.21-.06-.31-.1.07-.2.15-.3.23,1.24,7.93,2.34,15.71,3.26,23.27,19.03,8.31,38.61,16.52,58.75,24.57,26.47,9.78,59.4,21.98,98.81,36.61,1.11.38,2.22.76,3.34,1.14,22.59,7.67,44.83,14.77,66.66,21.37.06.02.12.03.17.05,4.88,1.1,10.2,2.54,15.84,4.42,1.66.46,3.32.92,5.02,1.38,8.62,2.37,15.32,5.5,20.1,9.38,2.86,2.32,4.78,5.24,5.78,8.75,1.26,3.18,1.96,7.02.93,11.17-.83,3.36-2.53,5.87-4.03,7.58-.5.62-1.02,1.19-1.61,1.65Z"/>
  </g>
</svg>